<svg width="104" height="50" viewBox="0 0 104 50" fill="none" xmlns="http://www.w3.org/2000/svg">
<path d="M61.9873 18.9016L62.0148 18.8919L62.0409 18.8791C62.4689 18.67 63.2822 18.4152 64.296 18.1645C65.2968 17.917 66.4542 17.6827 67.5449 17.5064C69.1908 17.2404 70.5071 18.5015 70.5071 20.2821V20.284V20.2859V20.2879V20.2898V20.2918V20.2937V20.2956V20.2976V20.2995V20.3015V20.3034V20.3053V20.3073V20.3092V20.3112V20.3131V20.3151V20.317V20.319V20.3209V20.3229V20.3248V20.3267V20.3287V20.3306V20.3326V20.3345V20.3365V20.3384V20.3404V20.3424V20.3443V20.3463V20.3482V20.3502V20.3521V20.3541V20.356V20.358V20.3599V20.3619V20.3639V20.3658V20.3678V20.3697V20.3717V20.3737V20.3756V20.3776V20.3795V20.3815V20.3835V20.3854V20.3874V20.3894V20.3913V20.3933V20.3953V20.3972V20.3992V20.4012V20.4031V20.4051V20.4071V20.409V20.411V20.413V20.4149V20.4169V20.4189V20.4209V20.4228V20.4248V20.4268V20.4288V20.4307V20.4327V20.4347V20.4367V20.4386V20.4406V20.4426V20.4446V20.4466V20.4485V20.4505V20.4525V20.4545V20.4565V20.4584V20.4604V20.4624V20.4644V20.4664V20.4684V20.4704V20.4723V20.4743V20.4763V20.4783V20.4803V20.4823V20.4843V20.4863V20.4883V20.4903V20.4922V20.4942V20.4962V20.4982V20.5002V20.5022V20.5042V20.5062V20.5082V20.5102V20.5122V20.5142V20.5162V20.5182V20.5202V20.5222V20.5242V20.5262V20.5282V20.5302V20.5322V20.5342V20.5362V20.5382V20.5402V20.5422V20.5442V20.5462V20.5482V20.5503V20.5523V20.5543V20.5563V20.5583V20.5603V20.5623V20.5643V20.5663V20.5683V20.5704V20.5724V20.5744V20.5764V20.5784V20.5804V20.5825V20.5845V20.5865V20.5885V20.5905V20.5925V20.5946V20.5966V20.5986V20.6006V20.6026V20.6047V20.6067V20.6087V20.6107V20.6128V20.6148V20.6168V20.6188V20.6209V20.6229V20.6249V20.627V20.629V20.631V20.633V20.6351V20.6371V20.6391V20.6412V20.6432V20.6452V20.6473V20.6493V20.6514V20.6534V20.6554V20.6575V20.6595V20.6615V20.6636V20.6656V20.6677V20.6697V20.6717V20.6738V20.6758V20.6779V20.6799V20.682V20.684V20.686V20.6881V20.6901V20.6922V20.6942V20.6963V20.6983V20.7004V20.7024V20.7045V20.7065V20.7086V20.7106V20.7127V20.7147V20.7168V20.7188V20.7209V20.723V20.725V20.7271V20.7291V20.7312V20.7332V20.7353V20.7374V20.7394V20.7415V20.7435V20.7456V20.7477V20.7497V20.7518V20.7539V20.7559V20.758V20.7601V20.7621V20.7642V20.7663V20.7683V20.7704V20.7725V20.7745V20.7766V20.7787V20.7807V20.7828V20.7849V20.787V20.789V20.7911V20.7932V20.7953V20.7973V20.7994V20.8015V20.8036V20.8056V20.8077V20.8098V20.8119V20.814V20.816V20.8181V20.8202V20.8223V20.8244V20.8265V20.8286V20.8306V20.8327V20.8348V20.8369V20.839V20.8411V20.8432V20.8453V20.8473V20.8494V20.8515V20.8536V20.8557V20.8578V20.8599V20.862V20.8641V20.8662V20.8683V20.8704V20.8725V20.8746V20.8767V20.8788V20.8809V20.883V20.8851V20.8872V20.8893V20.8914V20.8935V20.8956V20.8977V20.8998V20.9019V20.904V20.9061V20.9082V20.9103V20.9124V20.9146V20.9167V20.9188V20.9209V20.923V20.9251V20.9272V20.9293V20.9315V20.9336V20.9357V20.9378V20.9399V20.942V20.9441V20.9463V20.9484V20.9505V20.9526V20.9547V20.9569V20.959V20.9611V20.9632V20.9654V20.9675V20.9696V20.9717V20.9739V20.976V20.9781V20.9802V20.9824V20.9845V20.9866V20.9888V20.9909V20.993V20.9952V20.9973V20.9994V21.0016V21.0037V21.0058V21.008V21.0101V21.0122V21.0144V21.0165V21.0187V21.0208V21.0229V21.0251V21.0272V21.0294V21.0315V21.0337V21.0358V21.0379V21.0401V21.0422V21.0444V21.0465V21.0487V21.0508V21.053V21.0551V21.0573V21.0594V21.0616V21.0637V21.0659V21.068V21.0702V21.0723V21.0745V21.0767V21.0788V21.081V21.0831V21.0853V21.0874V21.0896V21.0918V21.0939V21.0961V21.0983V21.1004V21.1026V21.1047V21.1069V21.1091V21.1112V21.1134V21.1156V21.1177V21.1199V21.1221V21.1243V21.1264V21.1286V21.1308V21.1329V21.1351V21.1373V21.1395V21.1416V21.1438V21.146V21.1482V21.1503V21.1525V21.1547V21.1569V21.1591V21.1612V21.1634V21.1656V21.1678V21.17V21.1722V21.1743V21.1765V21.1787V21.1809V21.1831V21.1853V21.1875V21.1896V21.1918V21.194V21.1962V21.1984V21.2006V21.2028V21.205V21.2072V21.2094V21.2116V21.2138V21.216V21.2182V21.2204V21.2226V21.2248V21.227V21.2292V21.2314V21.2336V21.2358V21.238V21.2402V21.2424V21.2446V21.2468V21.249V21.2512V21.2534V21.2556V21.2578V21.26V21.2622V21.2645V21.2667V21.2689V21.2711V21.2733V21.2755V21.2777V21.28V21.2822V21.2844V21.2866V21.2888V21.291V21.2933V21.2955V21.2977V21.2999V21.3021V21.3044V21.3066V21.3088V21.311V21.3133V21.3155V21.3177V21.3199V21.3222V21.3244V21.3266V21.3289V21.3311V21.3333V21.3356V21.3378V21.34V21.3423V21.3445V21.3467V21.3563V21.3659V21.3757V21.3856V21.3956V21.4057V21.416V21.4263V21.4367V21.4473V21.4579V21.4687V21.4796V21.4906V21.5016V21.5128V21.5241V21.5356V21.5471V21.5587V21.5704V21.5822V21.5942V21.6062V21.6184V21.6306V21.643V21.6554V21.668V21.6806V21.6934V21.7062V21.7192V21.7323V21.7454V21.7587V21.772V21.7855V21.7991V21.8127V21.8265V21.8403V21.8543V21.8683V21.8825V21.8967V21.911V21.9255V21.94V21.9546V21.9693V21.9841V21.9991V22.0141V22.0291V22.0443V22.0596V22.075V22.0904V22.106V22.1216V22.1374V22.1532V22.1691V22.1851V22.2012V22.2174V22.2337V22.25V22.2665V22.283V22.2996V22.3163V22.3331V22.35V22.367V22.384V22.4012V22.4184V22.4357V22.4531V22.4706V22.4881V22.5058V22.5235V22.5413V22.5592V22.5772V22.5952V22.6134V22.6316V22.6499V22.6682V22.6867V22.7052V22.7238V22.7425V22.7613V22.7801V22.7991V22.8181V22.8372V22.8563V22.8755V22.8948V22.9142V22.9337V22.9532V22.9728V22.9925V23.0122V23.0321V23.052V23.0719V23.092V23.1121V23.1323V23.1525V23.1729V23.1933V23.2137V23.2343V23.2549V23.2756V23.2963V23.3171V23.338V23.359V23.38V23.4011V23.4222V23.4434V23.4647V23.486V23.5075V23.5289V23.5505V23.5721V23.5938V23.6155V23.6373V23.6591V23.6811V23.7031V23.7251V23.7472V23.7694V23.7916V23.8139V23.8362V23.8586V23.8811V23.9036V23.9262V23.9489V23.9716V23.9943V24.0171V24.04V24.0629V24.0859V24.109V24.1321V24.1552V24.1784V24.2017V24.225V24.2483V24.2718V24.2952V24.3188V24.3423V24.366V24.3897V24.4134V24.4372V24.461V24.4849V24.5088V24.5328V24.5568V24.5809V24.605V24.6292V24.6534V24.6777V24.702V24.7264V24.7508V24.7753V24.7998V24.8243V24.8489V24.8735V24.8982V24.9229V24.9477V24.9725V24.9974V25.0223V25.0472V25.0722V25.0972V25.1223V25.1474V25.1725V25.1977V25.2229V25.2482V25.2735V25.2988V25.3242V25.3496V25.3751V25.4005V25.4261V25.4516V25.4772V25.5029V25.5285V25.5542V25.58V25.6058V25.6316V25.6574V25.6833V25.7092V25.7351V25.7611V25.7871V25.8131V25.8392V25.8653V25.8914V25.9176V25.9438V25.97V25.9962V26.0225V26.0488V26.0751V26.1015V26.1279V26.1543V26.1807V26.2072V26.2337V26.2602V26.2867V26.3133V26.3399V26.3665V26.3932V26.4198V26.4465V26.4732V26.4999V26.5267V26.5535V26.5803V26.6071V26.6339V26.6608V26.6877V26.7145V26.7415V26.7684V26.7954V26.8223V26.8493V26.8763V26.9033V26.9304V26.9574V26.9845V27.0116V27.0387V27.0658V27.093V27.1201V27.1473V27.1744V27.2016V27.2288V27.256V27.2833V27.3105V27.3378V27.365V27.3923V27.4196V27.4469V27.4742V27.5015V27.5288V27.5561V27.5835V27.6108V27.6382V27.6655V27.6929V27.7203V27.7476V27.775V27.8024V27.8298V27.8572V27.8846V27.912V27.9395V27.9669V27.9943V28.0217V28.0491V28.0766V28.104V28.1314V28.1589V28.1863V28.2137V28.2412V28.2686V28.296V28.3234V28.3509V28.3783V28.4057V28.4331V28.4606V28.488V28.5154V28.5428V28.5702V28.5976V28.625V28.6524V28.6798V28.7071V28.7345V28.7619V28.7892V28.8166V28.8439V28.8713V28.8986V28.9259V28.9532V28.9805V29.0078V29.0351V29.0623V29.0896V29.1168V29.1441V29.1713V29.1985V29.2257V29.2529V29.28V29.3072V29.3343V29.3615V29.3886V29.4157V29.4427V29.4698V29.4969V29.5239V29.5509V29.5779V29.6049V29.6319V29.6588V29.6857V29.7126V29.7395V29.7664V29.7932V29.8201V29.8469V29.8736V29.9004V29.9272V29.9539V29.9806V30.0072V30.0339V30.0605V30.0871V30.1137V30.1403V30.1668V30.1933V30.2198V30.2462V30.2726V30.299V30.3254V30.3518V30.3781V30.4044V30.4306V30.4569V30.4831V30.5092V30.5354V30.5615V30.5876V30.6136V30.6396V30.6656V30.6916V30.7175V30.7434V30.7693V30.7951V30.8209V30.8466V30.8724V30.898V30.9237V30.9493V30.9749V31.0004V31.0259V31.0514V31.0768V31.1022V31.1276V31.1529V31.1782V31.2034V31.2286V31.2538V31.2789V31.304V31.3291V31.3541V31.379V31.4039V31.4288V31.4536V31.4784V31.5032V31.5279V31.5525V31.5772V31.6017V31.6262V31.6507V31.6752V31.6995V31.7239V31.7482V31.7724V31.7966V31.8208V31.8449V31.8689V31.893V31.9169V31.9408V31.9647V31.9885V32.0122V32.0359V32.0596V32.0832V32.1068V32.1303V32.1537V32.1771V32.2004V32.2237V32.247V32.2701V32.2933V32.3163V32.3393V32.3623V32.3852V32.408V32.4308V32.4536V32.4762V32.4988V32.5214V32.5439V32.5663V32.5887V32.611V32.6333V32.6555V32.6776V32.6997V32.7217V32.7437V32.7656V32.7874V32.8092V32.8309V32.8525V32.8741V32.8956V32.917V32.9384V32.9597V32.981V33.0022V33.0233V33.0443V33.0653C70.5071 33.6204 70.3853 34.0447 70.18 34.3251C69.9881 34.5873 69.6893 34.7721 69.2056 34.7984C67.9895 34.8646 66.2656 34.9998 64.3937 35.4441C64.3932 35.4442 64.3928 35.4443 64.3923 35.4444L61.3617 36.1479L61.3467 36.1514L61.3318 36.1559L58.2988 37.0611L58.2685 37.0701L58.2396 37.0829L54.6 38.6922L54.5775 38.7021L54.5561 38.7142L51.1765 40.6253L51.1542 40.6379L51.1333 40.6527L49.5735 41.7591L49.5593 41.7691L49.5459 41.7801L48.0727 42.9871L48.065 42.9933L48.0577 42.9999L46.5845 44.3074L46.5676 44.3225L46.5521 44.3389L46.0758 44.8456C45.958 44.971 45.8396 45.0872 45.7131 45.2112C45.6467 45.2764 45.578 45.3437 45.5061 45.4157C45.3069 45.6151 45.0979 45.8356 44.9143 46.085C44.8583 46.1611 44.8018 46.239 44.7445 46.3179C44.4212 46.764 44.0751 47.2416 43.6634 47.5931C43.2008 47.9881 42.7483 48.1467 42.2216 47.9434C41.921 47.8273 41.7315 47.74 41.6123 47.6124C41.4956 47.4874 41.3939 47.2474 41.349 46.8426C41.3052 46.4485 41.3224 45.9663 41.3776 45.4312C41.4325 44.8991 41.5225 44.3367 41.6157 43.7853C41.6328 43.6838 41.6501 43.5823 41.6674 43.4815C41.7425 43.0412 41.8158 42.6116 41.866 42.2326C42.2598 39.2618 43.7012 36.0361 45.261 33.2582C46.753 30.6009 48.329 28.395 49.1351 27.2667C49.169 27.2192 49.2016 27.1736 49.2327 27.13C49.3855 26.9158 49.5593 26.7177 49.7498 26.5455C55.6466 21.217 59.2287 19.8718 61.9873 18.9016Z" stroke="black"/>
<path d="M99.4834 27.79L77.0937 44.7441C74.7885 46.4897 71.4809 44.8455 71.4808 41.9539L71.4799 8.04689C71.4799 5.15533 74.7874 3.51094 77.0927 5.2564L99.4833 22.2094C101.333 23.6098 101.333 26.3895 99.4834 27.79Z" stroke="black"/>
<path d="M70.8825 18.5867C70.7594 18.5081 70.5971 18.2676 70.6853 18.0833C70.6988 18.0553 70.7756 18.0186 70.7452 17.9833C70.7047 17.9363 70.6985 17.9581 70.6985 17.8698C70.6985 17.7815 70.6589 17.7213 70.7189 17.6342C70.756 17.5805 70.7066 17.4017 70.7511 17.4275" stroke="#F3F5FD" stroke-width="3" stroke-linecap="round"/>
<path d="M71.1469 18.0069C71.0546 17.995 71.1408 17.9257 71.1148 17.8917C71.0853 17.8531 71.0198 17.9126 71.0155 17.8239C71.0105 17.7197 71.0225 17.6193 71.0885 17.5426C71.2179 17.3924 70.8128 17.486 70.779 17.4883C70.6778 17.4952 70.6075 17.4901 70.5629 17.6171C70.3953 18.0946 70.336 18.6376 70.3322 19.1594C70.3282 19.6966 70.4198 20.2288 70.5161 20.7525C70.5706 21.0485 70.6869 21.334 70.7848 21.6134C70.9143 21.9829 70.9938 22.3799 71.1469 22.7354" stroke="#F3F5FD" stroke-width="3" stroke-linecap="round"/>
<path d="M71.1211 17.9461C71.2929 17.9461 71.249 17.5314 71.2788 17.4275" stroke="#F3F5FD" stroke-width="3" stroke-linecap="round"/>
<path d="M71.3076 33.3783C71.1448 33.3783 70.6138 33.4156 71.0666 33.3348C71.1537 33.3192 71.3048 33.3601 71.3826 33.3099C71.5334 33.2127 71.1092 33.1123 71.0988 33.111C70.9696 33.0945 70.4562 32.9958 70.4026 33.198C70.3213 33.5044 71.4679 33.5356 71.2059 33.4342C71.0722 33.3825 71.129 33.0781 71.2005 32.9742C71.2781 32.8617 71.2112 32.4485 71.2112 32.3154C71.2112 31.821 71.1558 31.3516 71.1041 30.8608C71.0865 30.6935 71.0315 30.5364 71.0184 30.3698C70.9974 30.101 70.9645 30.906 70.9435 31.1747C70.8929 31.82 70.4091 33.6838 70.6114 33.0799C70.7027 32.8074 70.6806 32.4905 70.7373 32.2066C70.8496 31.6444 70.9635 31.079 71.0131 30.5034C71.0498 30.0777 71.0184 29.6304 71.0184 29.2043C71.0184 28.6556 71.0432 29.2067 71.0907 29.4374C71.2398 30.1605 71.5623 30.8436 71.6397 31.585C71.643 31.6169 71.645 31.7135 71.645 31.6813C71.645 31.4905 71.6463 31.3002 71.637 31.1095C71.5986 30.323 71.3951 29.5707 71.3184 28.7909C71.3016 28.6206 71.3109 28.5231 71.2755 28.7847C71.2122 29.2528 71.1471 29.7222 71.0988 30.1926C71.0469 30.6976 71.0203 31.2039 71.0184 31.7124C71.018 31.8451 71.0327 32.2248 71.08 32.104C71.388 31.3176 71.432 30.291 71.562 29.4436C71.6354 28.9656 71.5968 29.6655 71.5968 29.7699C71.5968 30.1222 71.6174 30.4875 71.5513 30.8329C71.5366 30.9097 71.3729 30.4855 71.3291 30.4319C71.3094 30.408 71.3103 30.6126 71.3076 30.6371C71.3029 30.6815 71.2176 30.5183 71.2112 30.5625C71.1648 30.8862 71.3942 31.9369 71.2005 30.9727C71.0827 30.3861 70.9526 29.8531 70.6436 29.3628C70.5 29.1351 70.5479 29.1017 70.5739 29.3504C70.6292 29.8781 70.5847 30.4364 70.5847 30.9665C70.5847 31.1281 70.5298 31.5999 70.5847 31.4513C70.6932 31.1573 70.7349 30.8238 70.7882 30.5127C70.872 30.023 71.0581 29.5972 71.1898 29.1266C71.3702 28.4825 71.3864 27.7771 71.3344 27.1064C71.279 26.3911 71.1148 25.7186 71.1148 24.9992C71.1148 23.6679 71.4382 22.3352 71.3532 21.0024C71.3515 20.9765 71.3319 20.8201 71.2969 20.816C71.2755 20.8134 71.2575 20.8429 71.2487 20.8657C71.1767 21.0518 71.1144 21.4745 71.0907 21.6209C70.978 22.3185 70.8553 23.0421 70.8765 23.7561C70.9071 24.7848 71.0184 25.8052 71.0184 26.8392C71.0184 27.449 70.9702 28.0554 70.9702 28.6635C70.9702 29.1763 70.8802 28.5585 70.8471 28.3838C70.6215 27.1938 70.7293 26.0327 70.7293 24.8283C70.7293 24.0995 70.6811 23.3685 70.6811 22.6372" stroke="#F3F5FD" stroke-width="3" stroke-linecap="round"/>
<path d="M76.1445 25.7555C76.613 24.7142 77.3042 23.769 77.9946 22.9083C78.0561 22.8316 78.1581 22.7536 78.1888 22.6507C78.205 22.5964 78.2019 22.5787 78.2472 22.5524" stroke="#F3F5FD" stroke-width="3" stroke-linecap="round"/>
<path d="M70.9966 20.244C70.9973 20.2171 71.1047 19.5251 71.2344 19.6757C71.3621 19.8238 71.0215 20.5248 70.9651 20.6703C70.955 20.6964 70.8528 20.9017 70.8217 20.7799C70.7591 20.5345 70.9167 20.1833 70.9966 19.9679C71.0377 19.8571 71.4197 19.0128 71.2729 19.562C71.2262 19.7366 70.7505 21.0139 70.5034 20.7271C70.1445 20.3105 70.8213 19.3997 71.0945 19.1642C71.3123 18.9763 70.9506 19.8688 70.8672 19.9801C70.474 20.5049 70.4752 19.6582 70.6328 19.3671C70.7159 19.2138 71.3135 18.6695 71.2974 18.7257C71.2223 18.9871 70.7599 19.6718 70.4684 19.5417C69.8808 19.2793 71.6089 18.1337 71.056 18.8556C71.0104 18.9152 70.6328 19.2494 70.7203 18.9246C70.7904 18.6641 71.1076 17.9579 71.0945 18.2305C71.0723 18.6939 70.6664 19.1885 70.5943 19.6716C70.535 20.0694 70.4118 21.714 71.0455 20.8123C71.1614 20.6475 71.318 20.2002 71.5282 20.1709C71.8094 20.1318 71.7786 21.0219 71.773 21.1696C71.75 21.7804 71.6292 22.3868 71.4722 22.968C71.3958 23.2511 71.2908 24.1137 71.2519 23.8205C71.0836 22.5507 71.5035 21.1385 72.0249 20.0491C72.1757 19.7341 72.1493 19.761 72.0249 20.0613C71.7463 20.7338 71.5288 21.4427 71.3114 22.1439C71.1614 22.6272 71.0318 23.1875 70.7727 23.6134C70.636 23.8383 70.8227 22.8152 70.8252 22.8056C71.0367 21.9955 71.2708 21.2078 71.4093 20.3739C71.4355 20.2159 71.5355 19.3513 71.4373 20.0167C71.2555 21.2473 71.1875 22.7098 70.381 23.6459C70.0984 23.9739 70.242 23.3231 70.2691 23.1912C70.4127 22.4909 70.6526 21.8081 70.8567 21.129C70.8842 21.0373 71.0525 20.5145 71.0525 20.926C71.0525 21.3311 70.9681 21.768 70.8427 22.1439C70.6931 22.5921 70.4485 23.0085 70.1327 23.3211C69.8582 23.5928 69.9506 23.2321 70.0347 23.041C70.1953 22.6764 70.3701 22.3054 70.5559 21.9571C70.8148 21.4716 70.7104 22.0938 70.6678 22.3063C70.5681 22.8033 70.4181 23.2858 70.3075 23.7799C70.2889 23.863 70.041 24.8828 70.2271 24.7014C70.462 24.4723 71.3345 23.2181 71.3638 24.2548C71.3781 24.7595 71.2928 25.263 71.2624 25.765C71.2371 26.1832 71.2743 26.6069 71.2344 27.0235C71.217 27.2052 71.1295 27.395 71.1295 27.5756C71.1295 27.6244 71.2544 27.7219 71.2799 27.7745C71.5245 28.2792 71.6652 27.197 71.6891 27.0397" stroke="#F3F5FD" stroke-width="3" stroke-linecap="round"/>
<path d="M71.5545 33.8641C71.2453 33.8987 70.9392 33.9313 70.6287 33.9313C70.5964 33.9313 70.3979 33.9592 70.468 34.0507C70.5573 34.1672 71.0819 34.0656 71.2363 34.0656C71.4101 34.0656 71.4944 34.1999 71.2941 34.1999C71.1109 34.1999 70.9277 34.1999 70.7445 34.1999" stroke="#F3F5FD" stroke-width="3" stroke-linecap="round"/>
<path d="M71.2969 17.5709C71.3076 17.578 71.3227 17.5851 71.3352 17.5851C71.3454 17.5851 71.3534 17.5808 71.3629 17.5767C71.3746 17.5715 71.3863 17.5675 71.3976 17.5612C71.4181 17.5497 71.4386 17.5431 71.46 17.5351C71.4709 17.531 71.4809 17.5266 71.4924 17.5266" stroke="#F3F5FD" stroke-width="3" stroke-linecap="round"/>
<path d="M70.7422 33.236C70.8434 33.0417 70.9558 32.8555 71.0444 32.6525C71.1281 32.4607 71.1371 32.2859 71.0911 32.077C71.0273 31.787 70.8725 31.5556 70.7724 31.2846C70.6412 30.9295 70.6293 30.5419 70.6667 30.1623C70.6952 29.8725 70.7878 29.6035 70.8349 29.3189C70.8812 29.0393 70.8029 28.8247 70.7058 28.5736C70.6846 28.5188 70.6399 28.4004 70.6165 28.3433C70.5997 28.302 70.564 28.1874 70.5499 28.2301C70.5291 28.2928 70.5611 28.4513 70.5671 28.5035C70.5887 28.6917 70.6256 28.8744 70.6557 29.0607" stroke="#F3F5FD" stroke-width="3" stroke-linecap="round"/>
<path d="M71.3208 17.6063C71.3188 17.5963 71.3035 17.6071 71.3045 17.5929C71.305 17.5853 71.3077 17.5786 71.3074 17.5708C71.3069 17.5619 71.2877 17.5556 71.2819 17.5522C71.2709 17.5456 71.2694 17.5133 71.2681 17.5003C71.2668 17.4868 71.2732 17.4692 71.2587 17.4662C71.2575 17.4659 71.2485 17.4644 71.2502 17.4622C71.2516 17.4603 71.2529 17.4584 71.2517 17.4555C71.25 17.4516 71.236 17.4428 71.2371 17.4475C71.2391 17.4557 71.24 17.4466 71.24 17.4431C71.24 17.4379 71.2395 17.434 71.2349 17.4324C71.2311 17.4311 71.2325 17.4226 71.2325 17.4192C71.2325 17.4166 71.2397 17.4141 71.2389 17.4152C71.2359 17.4186 71.2381 17.4442 71.2397 17.4485C71.2412 17.4525 71.2408 17.4609 71.2414 17.4654C71.2426 17.4727 71.2443 17.4815 71.2445 17.4888C71.2448 17.4988 71.2465 17.5078 71.2474 17.5176C71.2478 17.5219 71.2491 17.5262 71.249 17.5304C71.2486 17.5421 71.2312 17.5347 71.2266 17.5336" stroke="#F3F5FD" stroke-width="3" stroke-linecap="round"/>
<path d="M71.1533 17.5691C71.1445 17.5691 71.1377 17.562 71.1294 17.562C71.119 17.562 71.1148 17.541 71.1144 17.5319C71.1142 17.5271 71.1112 17.525 71.1096 17.5212C71.1077 17.517 71.1067 17.5132 71.1051 17.5088C71.1017 17.4998 71.0952 17.4956 71.0916 17.4875C71.0866 17.4762 71.0731 17.4566 71.0811 17.4446C71.0819 17.4435 71.083 17.4341 71.083 17.4326C71.0828 17.4291 71.0788 17.4269 71.0785 17.4237C71.0782 17.4208 71.0743 17.4184 71.0728 17.4162C71.0717 17.4146 71.0734 17.4114 71.0722 17.4099C71.0691 17.4062 71.0707 17.414 71.071 17.4148" stroke="#F3F5FD" stroke-width="3" stroke-linecap="round"/>
<path d="M71.1055 17.5177C71.1055 17.508 71.1119 17.5015 71.1175 17.4948C71.1225 17.4889 71.1283 17.4907 71.1339 17.4911C71.146 17.4919 71.1533 17.4737 71.1533 17.4619C71.1533 17.449 71.1544 17.4393 71.1519 17.4264C71.1507 17.42 71.1511 17.4167 71.1477 17.4127C71.1464 17.4111 71.1378 17.4015 71.1429 17.4095" stroke="#F3F5FD" stroke-width="3" stroke-linecap="round"/>
<path d="M71.3072 17.5513C71.3109 17.5391 71.3198 17.5284 71.3198 17.5151C71.3198 17.5074 71.3182 17.5007 71.3182 17.4928C71.3182 17.4852 71.3155 17.4742 71.3127 17.4672C71.3111 17.4634 71.3076 17.4541 71.3072 17.4502C71.306 17.4394 71.2993 17.4294 71.2993 17.4183C71.2993 17.4121 71.2977 17.4112 71.2977 17.4103C71.2977 17.408 71.2951 17.3976 71.293 17.4024" stroke="#F3F5FD" stroke-width="3" stroke-linecap="round"/>
<path d="M71.1661 17.5337C71.1526 17.5255 71.1525 17.5148 71.1493 17.4982C71.148 17.4914 71.1467 17.4829 71.1467 17.476C71.1467 17.4675 71.1437 17.4598 71.1437 17.4512C71.1437 17.4447 71.1422 17.4389 71.1422 17.4326C71.1422 17.4279 71.1378 17.4188 71.1437 17.4184C71.1468 17.4182 71.1493 17.4151 71.1527 17.4149C71.1569 17.4146 71.1615 17.4131 71.1655 17.4113C71.1698 17.4095 71.1732 17.4055 71.1773 17.4041C71.1853 17.4014 71.1812 17.3945 71.1826 17.4078" stroke="#F3F5FD" stroke-width="3" stroke-linecap="round"/>
<path d="M71.2583 17.4912C71.2578 17.4787 71.2575 17.4647 71.2553 17.453C71.2541 17.4466 71.2489 17.4403 71.2464 17.4344C71.2426 17.4256 71.2422 17.417 71.2374 17.4082C71.2356 17.4048 71.2344 17.3988 71.2344 17.3947C71.2344 17.3916 71.2363 17.4051 71.2337 17.4042C71.2301 17.4029 71.217 17.3833 71.2254 17.4007" stroke="#F3F5FD" stroke-width="3" stroke-linecap="round"/>
<path d="M71.4702 34.6124C71.4271 34.5796 71.3699 34.5853 71.3243 34.5606C71.3102 34.5529 71.2842 34.5568 71.2685 34.555C71.238 34.5516 71.2063 34.5541 71.1757 34.5541C71.103 34.5541 71.0299 34.5516 70.9572 34.5541C70.9068 34.5559 70.8577 34.5733 70.8069 34.5747C70.7698 34.5757 70.7325 34.5749 70.6953 34.5749" stroke="#F3F5FD" stroke-width="2" stroke-linecap="round"/>
<path d="M71.3044 34.6063C71.2834 34.6336 71.2734 34.6504 71.2734 34.6849C71.2734 34.7032 71.2734 34.7216 71.2734 34.7399C71.2734 34.7519 71.2979 34.753 71.3066 34.753C71.3247 34.753 71.3317 34.7635 71.3088 34.7635" stroke="#F3F5FD" stroke-width="0.2" stroke-linecap="round"/>
<path d="M71.2846 34.7771C71.2783 34.7718 71.267 34.7703 71.2596 34.7683C71.2426 34.7635 71.2247 34.7609 71.2073 34.7604C71.1749 34.7595 71.1425 34.7571 71.1101 34.7571C71.0803 34.7571 71.0511 34.7516 71.0212 34.7516C71.0083 34.7516 70.995 34.7525 70.9821 34.7511C70.9707 34.7498 70.96 34.7458 70.9492 34.7416" stroke="#F3F5FD" stroke-width="0.2" stroke-linecap="round"/>
<path d="M71.1898 34.7659C71.1593 34.7673 71.1293 34.7675 71.099 34.7632C71.0892 34.7618 71.0794 34.7601 71.0696 34.759C71.0593 34.7578 71.049 34.7611 71.0388 34.7601C71.0149 34.7578 70.9912 34.7583 70.9671 34.7581C70.9551 34.758 70.9436 34.7553 70.9318 34.7528C70.9194 34.7502 70.907 34.7504 70.8945 34.7504" stroke="#F3F5FD" stroke-width="0.2" stroke-linecap="round"/>
<path d="M70.6367 34.7733C70.6457 34.7733 70.658 34.7707 70.6666 34.7735C70.669 34.7743 70.6603 34.7913 70.6588 34.7946" stroke="#F3F5FD" stroke-width="0.2" stroke-linecap="round"/>
<path d="M70.7151 34.7824C70.7086 34.7824 70.7028 34.7817 70.6969 34.7844C70.693 34.7861 70.6898 34.7882 70.6856 34.7893C70.6828 34.7901 70.6786 34.7904 70.6763 34.7927C70.6743 34.7949 70.6672 34.7968 70.6644 34.7951C70.6621 34.7937 70.6713 34.7911 70.6724 34.791C70.6751 34.7909 70.6778 34.7912 70.6804 34.791C70.6861 34.7905 70.693 34.7893 70.6985 34.7875C70.6987 34.7874 70.7046 34.7844 70.7041 34.7864C70.7038 34.7876 70.7002 34.7884 70.6992 34.7889C70.6972 34.7897 70.691 34.791 70.6931 34.791C70.696 34.791 70.6989 34.7902 70.7014 34.7902" stroke="#F3F5FD" stroke-width="0.2" stroke-linecap="round"/>
<path d="M70.9069 34.7568C70.9026 34.7585 70.9003 34.7652 70.8961 34.7675C70.8942 34.7685 70.8926 34.7688 70.8906 34.7688C70.8871 34.7688 70.8837 34.7688 70.8803 34.7688C70.873 34.7688 70.8662 34.7731 70.8591 34.7731C70.8514 34.7731 70.8437 34.7731 70.8359 34.7731" stroke="#F3F5FD" stroke-width="0.2"/>
<path d="M70.8328 34.7725C70.8094 34.7712 70.786 34.7673 70.7625 34.7695C70.7457 34.771 70.7299 34.7772 70.7135 34.7811C70.705 34.7831 70.6962 34.7889 70.7114 34.7877C70.7296 34.7863 70.7441 34.7776 70.7622 34.7808C70.7753 34.7831 70.7886 34.7794 70.8016 34.7794C70.8301 34.7794 70.8583 34.776 70.8867 34.776C70.914 34.776 70.9413 34.7792 70.9685 34.7808C70.9858 34.7818 71.0032 34.7812 71.0205 34.7812C71.0421 34.7812 71.0634 34.7793 71.0849 34.7781C71.1194 34.7762 71.1544 34.7761 71.1885 34.7696C71.2039 34.7666 71.2197 34.7597 71.2353 34.7595C71.2474 34.7593 71.2588 34.7648 71.2709 34.7648C71.2848 34.765 71.2984 34.7606 71.3122 34.7595C71.3326 34.7578 71.3529 34.759 71.3733 34.7604" stroke="#F3F5FD" stroke-width="0.2"/>
<path d="M71.3436 34.7693C71.3198 34.7693 71.2967 34.7704 71.2734 34.7657" stroke="#F3F5FD" stroke-width="0.2"/>
<path d="M70.9315 17.7779C70.9268 17.7591 70.9133 17.7424 70.9133 17.7228C70.9133 17.7111 70.9133 17.6995 70.9133 17.6878C70.9133 17.6664 70.9024 17.6459 70.8976 17.6258C70.8954 17.6168 70.8906 17.6039 70.8906 17.595C70.8906 17.583 70.9009 17.5757 70.902 17.5654C70.9025 17.5605 70.9056 17.5569 70.9041 17.5508C70.903 17.5462 70.9 17.5438 70.8997 17.5385C70.8988 17.5188 70.8952 17.5197 70.9111 17.5089" stroke="#F3F5FD" stroke-width="3" stroke-linecap="round"/>
<path d="M70.9432 17.7165C70.9309 17.6882 70.9155 17.661 70.9038 17.6332C70.8969 17.6169 70.8976 17.6043 70.8976 17.5853C70.8976 17.5699 70.9011 17.5529 70.9011 17.5396C70.9011 17.5208 70.8842 17.4999 70.9046 17.4958" stroke="#F3F5FD" stroke-width="3" stroke-linecap="round"/>
<path d="M70.9002 17.4555C70.8974 17.4479 70.8974 17.4459 70.9042 17.4459" stroke="#F3F5FD" stroke-width="3" stroke-linecap="round"/>
<path d="M70.8984 17.4498C70.8989 17.4462 70.8997 17.4472 70.9024 17.4459" stroke="#F3F5FD" stroke-width="3" stroke-linecap="round"/>
<path d="M70.9023 17.4415V17.4376" stroke="#F3F5FD" stroke-width="3" stroke-linecap="round"/>
<path d="M70.9023 17.4375V17.4336" stroke="#F3F5FD" stroke-width="3" stroke-linecap="round"/>
<path d="M70.9023 17.4336H70.9092" stroke="#F3F5FD" stroke-width="3" stroke-linecap="round"/>
<path d="M70.9056 17.4334C70.9004 17.4308 70.9022 17.4329 70.9056 17.4334" stroke="#F3F5FD" stroke-width="3" stroke-linecap="round"/>
<path d="M70.9141 17.4333C70.9146 17.4295 70.9159 17.4323 70.918 17.4333" stroke="#F3F5FD" stroke-width="3" stroke-linecap="round"/>
<path d="M70.918 17.4293H70.9219" stroke="#F3F5FD" stroke-width="3" stroke-linecap="round"/>
<path d="M70.918 17.425H70.9219" stroke="#F3F5FD" stroke-width="3" stroke-linecap="round"/>
<path d="M70.9141 17.425H70.921" stroke="#F3F5FD" stroke-width="3" stroke-linecap="round"/>
<path d="M70.9159 17.4249C70.9129 17.4215 70.9141 17.4229 70.9159 17.421" stroke="#F3F5FD" stroke-width="3" stroke-linecap="round"/>
<path d="M70.918 17.421H70.9141" stroke="#F3F5FD" stroke-width="3" stroke-linecap="round"/>
<path d="M70.918 17.4209C70.9148 17.4205 70.9141 17.4173 70.9141 17.4209" stroke="#F3F5FD" stroke-width="3" stroke-linecap="round"/>
<path d="M70.918 17.4209C70.9148 17.4205 70.9141 17.4173 70.9141 17.4209" stroke="#F3F5FD" stroke-width="3" stroke-linecap="round"/>
<path d="M70.918 17.4206C70.9144 17.4202 70.9154 17.4194 70.9141 17.4167" stroke="#F3F5FD" stroke-width="3" stroke-linecap="round"/>
<path d="M70.9003 17.4123C70.8973 17.4089 70.8984 17.4103 70.9003 17.4084" stroke="#F3F5FD" stroke-width="3" stroke-linecap="round"/>
<path d="M70.8724 17.429C70.8697 17.4239 70.8719 17.4256 70.8724 17.429" stroke="#F3F5FD" stroke-width="3" stroke-linecap="round"/>
<path d="M70.8691 17.4285C70.8682 17.4208 70.8588 17.4268 70.8555 17.4285" stroke="#F3F5FD" stroke-width="3" stroke-linecap="round"/>
<path d="M70.8508 17.4328C70.8465 17.4308 70.8479 17.4307 70.8479 17.4328" stroke="#F3F5FD" stroke-width="3" stroke-linecap="round"/>
<path d="M70.8431 17.4334C70.8379 17.4308 70.8397 17.4329 70.8431 17.4334" stroke="#F3F5FD" stroke-width="3" stroke-linecap="round"/>
<path d="M70.8399 17.4332C70.8364 17.4302 70.8378 17.4314 70.8359 17.4332" stroke="#F3F5FD" stroke-width="3" stroke-linecap="round"/>
<path d="M70.8272 17.4325C70.8224 17.4323 70.8229 17.4318 70.8203 17.4293" stroke="#F3F5FD" stroke-width="3" stroke-linecap="round"/>
<path d="M70.8243 17.4336H70.8203" stroke="#F3F5FD" stroke-width="3" stroke-linecap="round"/>
<path d="M70.8164 17.4332C70.8132 17.4328 70.8125 17.4296 70.8125 17.4332" stroke="#F3F5FD" stroke-width="3" stroke-linecap="round"/>
<path d="M70.8164 17.4336H70.8125" stroke="#F3F5FD" stroke-width="3" stroke-linecap="round"/>
<path d="M70.8047 17.433C70.803 17.4311 70.8008 17.4249 70.8008 17.4292" stroke="#F3F5FD" stroke-width="3" stroke-linecap="round"/>
<path d="M70.8008 17.4289L70.7969 17.425" stroke="#F3F5FD" stroke-width="3" stroke-linecap="round"/>
<path d="M70.8008 17.4249C70.7972 17.4245 70.7982 17.4236 70.7969 17.421" stroke="#F3F5FD" stroke-width="3" stroke-linecap="round"/>
<path d="M70.8008 17.4209C70.7973 17.4179 70.7987 17.4191 70.7969 17.4209" stroke="#F3F5FD" stroke-width="3" stroke-linecap="round"/>
<path d="M70.8008 17.4206C70.8004 17.4171 70.7995 17.4181 70.7969 17.4167" stroke="#F3F5FD" stroke-width="3" stroke-linecap="round"/>
<path d="M70.8008 17.4166C70.8004 17.413 70.7995 17.414 70.7969 17.4127" stroke="#F3F5FD" stroke-width="3" stroke-linecap="round"/>
<path d="M70.793 17.4084H70.7969" stroke="#F3F5FD" stroke-width="3" stroke-linecap="round"/>
<path d="M70.7452 17.4336C70.7404 17.4339 70.7409 17.4344 70.7383 17.4368" stroke="#F3F5FD" stroke-width="3" stroke-linecap="round"/>
<path d="M70.7383 17.4336H70.7344" stroke="#F3F5FD" stroke-width="3" stroke-linecap="round"/>
<path d="M70.7227 17.4336H70.7296" stroke="#F3F5FD" stroke-width="3" stroke-linecap="round"/>
<path d="M70.7227 17.4293C70.7195 17.4289 70.7188 17.4257 70.7188 17.4293" stroke="#F3F5FD" stroke-width="3" stroke-linecap="round"/>
<path d="M70.7188 17.4293C70.7156 17.4289 70.7148 17.4257 70.7148 17.4293" stroke="#F3F5FD" stroke-width="3" stroke-linecap="round"/>
<path d="M70.7148 17.4293H70.7217" stroke="#F3F5FD" stroke-width="3" stroke-linecap="round"/>
<path d="M70.7181 17.4251C70.7129 17.4225 70.7147 17.4246 70.7181 17.4251" stroke="#F3F5FD" stroke-width="3" stroke-linecap="round"/>
<path d="M70.705 17.4209C70.7025 17.4185 70.7025 17.4185 70.705 17.4209" stroke="#F3F5FD" stroke-width="3" stroke-linecap="round"/>
<path d="M70.705 17.4166C70.7025 17.4142 70.7025 17.4142 70.705 17.4166" stroke="#F3F5FD" stroke-width="3" stroke-linecap="round"/>
<path d="M70.705 17.4123C70.7019 17.4089 70.7031 17.4103 70.705 17.4084" stroke="#F3F5FD" stroke-width="3" stroke-linecap="round"/>
<path d="M70.7051 17.4083C70.7012 17.4078 70.704 17.4065 70.7051 17.4044" stroke="#F3F5FD" stroke-width="3" stroke-linecap="round"/>
<path d="M70.7031 17.4044H70.7071" stroke="#F3F5FD" stroke-width="3" stroke-linecap="round"/>
<path d="M70.7071 17.4044H70.7031" stroke="#F3F5FD" stroke-width="3" stroke-linecap="round"/>
<path d="M70.6953 17.3959H70.7022" stroke="#F3F5FD" stroke-width="3" stroke-linecap="round"/>
<path d="M71.0096 17.7373C71.0005 17.7324 71.0047 17.733 71.0061 17.7249" stroke="#F3F5FD" stroke-width="3" stroke-linecap="round"/>
<path d="M71.0055 17.7093C70.9994 17.7025 70.9901 17.6958 71.0015 17.6917" stroke="#F3F5FD" stroke-width="3" stroke-linecap="round"/>
<path d="M71.0045 17.6511C70.9999 17.646 70.9905 17.6416 71.0006 17.6416" stroke="#F3F5FD" stroke-width="3" stroke-linecap="round"/>
<path d="M71.0031 17.6166C70.9982 17.6067 70.9999 17.6098 71.0031 17.6041" stroke="#F3F5FD" stroke-width="3" stroke-linecap="round"/>
<path d="M71.0013 17.5915C70.9991 17.5851 71.0001 17.5846 71.0013 17.579" stroke="#F3F5FD" stroke-width="3" stroke-linecap="round"/>
<path d="M70.998 17.5663C70.9949 17.5628 70.9961 17.5642 70.998 17.5624" stroke="#F3F5FD" stroke-width="3" stroke-linecap="round"/>
<path d="M70.9994 17.5637C70.9931 17.5628 70.9973 17.5579 70.9994 17.5542" stroke="#F3F5FD" stroke-width="3" stroke-linecap="round"/>
<path d="M71.0001 17.5497C70.9952 17.5471 70.9962 17.5474 70.9962 17.5458" stroke="#F3F5FD" stroke-width="3" stroke-linecap="round"/>
<path d="M71.0025 17.5414C70.9934 17.5408 70.9945 17.5376 71.0025 17.5376" stroke="#F3F5FD" stroke-width="3" stroke-linecap="round"/>
<path d="M70.999 17.5347C70.9948 17.5302 70.9885 17.529 70.995 17.5251" stroke="#F3F5FD" stroke-width="3" stroke-linecap="round"/>
<path d="M70.9957 17.5125C70.9901 17.5051 70.9983 17.4943 70.9922 17.4834" stroke="#F3F5FD" stroke-width="3" stroke-linecap="round"/>
<path d="M70.9915 17.479C70.986 17.4783 70.9887 17.4765 70.9915 17.4751" stroke="#F3F5FD" stroke-width="3" stroke-linecap="round"/>
<path d="M70.9923 17.471C70.9923 17.4647 70.9912 17.4612 70.9958 17.4585" stroke="#F3F5FD" stroke-width="3" stroke-linecap="round"/>
<path d="M70.9958 17.4531C70.9913 17.4508 70.9907 17.4502 70.9958 17.4502" stroke="#F3F5FD" stroke-width="3" stroke-linecap="round"/>
<path d="M70.9991 17.4491C70.993 17.4441 70.998 17.4486 70.9922 17.4459" stroke="#F3F5FD" stroke-width="3" stroke-linecap="round"/>
<path d="M71.0024 17.4457C70.9936 17.4457 70.9944 17.4438 71.0024 17.4419" stroke="#F3F5FD" stroke-width="3" stroke-linecap="round"/>
<path d="M71.003 17.4408C71.0005 17.4388 70.999 17.4385 70.9961 17.4376" stroke="#F3F5FD" stroke-width="3" stroke-linecap="round"/>
<path d="M71 17.4376H70.9961" stroke="#F3F5FD" stroke-width="3" stroke-linecap="round"/>
<path d="M71.0022 17.4306C70.9933 17.4292 70.9949 17.4232 71.0022 17.421" stroke="#F3F5FD" stroke-width="3" stroke-linecap="round"/>
<path d="M71.0032 17.4165C70.995 17.4155 71.005 17.4132 71.0072 17.4127" stroke="#F3F5FD" stroke-width="3" stroke-linecap="round"/>
<path d="M71 17.4127H71.0039" stroke="#F3F5FD" stroke-width="3" stroke-linecap="round"/>
<path d="M71.0039 17.4127H71" stroke="#F3F5FD" stroke-width="3" stroke-linecap="round"/>
<path d="M70.9991 17.4167C70.9946 17.4167 70.994 17.4166 70.9922 17.42" stroke="#F3F5FD" stroke-width="3" stroke-linecap="round"/>
<path d="M70.9952 17.421C70.992 17.4214 70.9908 17.4226 70.9883 17.4242" stroke="#F3F5FD" stroke-width="3" stroke-linecap="round"/>
<path d="M70.9727 17.425H70.9796" stroke="#F3F5FD" stroke-width="3" stroke-linecap="round"/>
<path d="M70.9766 17.4248C70.976 17.421 70.9748 17.4238 70.9727 17.4248" stroke="#F3F5FD" stroke-width="3" stroke-linecap="round"/>
<path d="M70.9727 17.4249C70.9731 17.4213 70.9739 17.4223 70.9766 17.421" stroke="#F3F5FD" stroke-width="3" stroke-linecap="round"/>
<path d="M70.9727 17.421C70.9691 17.4215 70.9701 17.4223 70.9688 17.4249" stroke="#F3F5FD" stroke-width="3" stroke-linecap="round"/>
<path d="M70.9727 17.421H70.9688" stroke="#F3F5FD" stroke-width="3" stroke-linecap="round"/>
<path d="M70.9609 17.421H70.9678" stroke="#F3F5FD" stroke-width="3" stroke-linecap="round"/>
<path d="M70.9649 17.4209C70.9614 17.4179 70.9628 17.4191 70.9609 17.4209" stroke="#F3F5FD" stroke-width="3" stroke-linecap="round"/>
<path d="M70.9532 17.4206C70.9527 17.4171 70.9519 17.4181 70.9492 17.4167" stroke="#F3F5FD" stroke-width="3" stroke-linecap="round"/>
<path d="M70.9532 17.4123C70.9495 17.4119 70.9506 17.4111 70.9492 17.4084" stroke="#F3F5FD" stroke-width="3" stroke-linecap="round"/>
<path d="M70.9493 17.4083C70.9456 17.4078 70.9466 17.407 70.9453 17.4044" stroke="#F3F5FD" stroke-width="3" stroke-linecap="round"/>
<path d="M70.8555 17.4376H70.8516" stroke="#F3F5FD" stroke-width="3" stroke-linecap="round"/>
<path d="M70.8428 17.4368C70.8396 17.4365 70.8385 17.4352 70.8359 17.4336" stroke="#F3F5FD" stroke-width="3" stroke-linecap="round"/>
<path d="M70.8315 17.4278C70.8276 17.4273 70.8282 17.4217 70.8282 17.4247" stroke="#F3F5FD" stroke-width="3" stroke-linecap="round"/>
<path d="M70.8281 17.4249V17.421" stroke="#F3F5FD" stroke-width="3" stroke-linecap="round"/>
<path d="M70.8282 17.4209C70.8276 17.4171 70.8263 17.4199 70.8242 17.4209" stroke="#F3F5FD" stroke-width="3" stroke-linecap="round"/>
<path d="M70.8283 17.418C70.8277 17.4126 70.8237 17.4105 70.8203 17.4084" stroke="#F3F5FD" stroke-width="3" stroke-linecap="round"/>
<path d="M71.1328 17.4956C71.1292 17.4951 71.1302 17.4943 71.1289 17.4917" stroke="#F3F5FD" stroke-width="3" stroke-linecap="round"/>
<path d="M71.8547 17.1462C71.8042 17.2111 71.7562 17.274 71.6941 17.3243C71.6599 17.3521 71.6235 17.3775 71.5899 17.4062C71.5494 17.4407 71.5038 17.4794 71.4961 17.5417" stroke="#F3F5FD" stroke-width="3" stroke-linecap="round"/>
<path d="M71.2338 34.7068C71.2519 34.7083 71.2693 34.7132 71.2867 34.7188C71.2987 34.7227 71.3108 34.7265 71.3222 34.7323C71.3249 34.7337 71.3304 34.7362 71.3318 34.7398C71.335 34.7481 71.3065 34.7473 71.3023 34.7473C71.2957 34.7473 71.2894 34.745 71.2829 34.7435C71.2743 34.7415 71.2651 34.7417 71.2563 34.7402C71.2391 34.7372 71.2205 34.7368 71.2031 34.7368C71.2018 34.7368 71.1911 34.7373 71.1914 34.7377C71.195 34.7426 71.2067 34.7413 71.2115 34.7413C71.2171 34.7413 71.2211 34.7383 71.2266 34.7383C71.2307 34.7383 71.2352 34.7368 71.2397 34.7368C71.2425 34.7368 71.2459 34.7362 71.2486 34.7376C71.2505 34.7386 71.2499 34.7404 71.2513 34.7413C71.2565 34.7448 71.2543 34.7415 71.25 34.7429C71.2475 34.7438 71.2471 34.7458 71.2433 34.7458C71.2378 34.7458 71.2323 34.7458 71.2268 34.7458C71.2192 34.7458 71.2142 34.7383 71.2066 34.7383" stroke="#F3F5FD" stroke-width="0.5"/>
<path d="M74.1606 35.9756C74.1305 35.6578 74.1333 35.3785 74.252 35.0796C74.3973 34.7135 74.6528 34.5386 74.9257 34.3173C75.3269 33.992 75.712 33.6401 76.1192 33.325C76.7272 32.8546 77.372 32.545 78.0795 32.3387C80.042 31.7665 82.1126 31.8464 84.0333 31.0596" stroke="#F3F5FD" stroke-width="3" stroke-linecap="round"/>
<path d="M71.2257 34.3403C71.2204 34.341 71.223 34.3427 71.2257 34.3441" stroke="#F3F5FD" stroke-width="3" stroke-linecap="round"/>
<path d="M71.2331 34.3358C71.228 34.333 71.2235 34.3276 71.2292 34.3358" stroke="#F3F5FD" stroke-width="3" stroke-linecap="round"/>
<path d="M71.2305 34.3724C71.2327 34.378 71.233 34.382 71.2373 34.3845" stroke="#F3F5FD" stroke-width="3" stroke-linecap="round"/>
<path d="M71.242 34.4235C71.2367 34.4202 71.2374 34.4198 71.242 34.4235" stroke="#F3F5FD" stroke-width="3" stroke-linecap="round"/>
<path d="M71.251 34.4529C71.2478 34.4534 71.2535 34.4554 71.254 34.4557" stroke="#F3F5FD" stroke-width="3" stroke-linecap="round"/>
<path d="M71.251 34.4893C71.2478 34.4898 71.2535 34.4918 71.254 34.492" stroke="#F3F5FD" stroke-width="3" stroke-linecap="round"/>
<path d="M71.3837 34.3446C71.3805 34.3446 71.3779 34.3422 71.375 34.3403" stroke="#F3F5FD" stroke-width="3" stroke-linecap="round"/>
<path d="M79.5348 18.0358C79.5291 17.9311 79.5182 18.195 79.518 18.22C79.517 18.3237 79.5026 18.4262 79.5012 18.5298C79.5008 18.5531 79.5037 18.6249 79.5142 18.558C79.541 18.3868 79.5348 18.1988 79.5348 18.025C79.5348 17.9254 79.5018 18.1884 79.4974 18.2092C79.4341 18.5081 79.36 18.8012 79.3779 19.1127C79.3876 19.2811 79.4193 19.4502 79.5068 19.5884C79.5787 19.7019 79.553 19.4744 79.5488 19.441C79.5186 19.205 79.4565 18.9777 79.4209 18.7433C79.4193 18.7328 79.3981 18.3622 79.4666 18.4854C79.5512 18.6375 79.5313 18.906 79.5338 19.077C79.5365 19.2582 79.5183 19.4499 79.5441 19.6295C79.5657 19.7799 79.5822 19.6363 79.5852 19.5667C79.5962 19.3098 79.604 19.0574 79.5852 18.8007C79.562 18.4843 79.5684 18.2319 79.5684 17.9383C79.5684 17.8964 79.569 17.7112 79.518 17.7043C79.4501 17.695 79.4721 17.6175 79.4844 17.5678C79.4891 17.5483 79.5225 17.4425 79.4918 17.4323C79.4583 17.4212 79.4142 17.4391 79.4377 17.3727C79.4461 17.349 79.4102 17.371 79.3835 17.3727C79.3647 17.374 79.3519 17.391 79.3331 17.3922C79.3217 17.393 79.2995 17.3714 79.2995 17.3847C79.2995 17.4822 79.264 17.5926 79.2921 17.6859C79.3374 17.8361 79.3513 18.0071 79.3751 18.1636C79.4184 18.4482 79.4817 18.721 79.4974 19.0109C79.5121 19.2816 79.4566 19.5803 79.5012 19.8451C79.5227 19.9733 79.5683 20.0958 79.602 20.22C79.6519 20.404 79.6356 20.6348 79.6356 20.8246C79.6356 21.2377 79.6356 21.6509 79.6356 22.064C79.6356 22.5183 79.6356 22.9727 79.6356 23.427C79.6356 23.7908 79.5852 24.1483 79.5852 24.5115C79.5852 24.7947 79.5734 25.0813 79.602 25.3631C79.604 25.3834 79.6232 25.4624 79.643 25.4032C79.6841 25.2805 79.6699 25.0966 79.6654 24.9698C79.6615 24.8591 79.6525 24.7487 79.6449 24.6383C79.6416 24.5898 79.6678 24.468 79.6318 24.4931C79.6167 24.5036 79.6098 24.6358 79.6094 24.6393C79.5951 24.766 79.5813 24.8928 79.5684 25.0196C79.5312 25.3843 79.5005 25.7504 79.4713 26.1161C79.4596 26.2617 79.3971 26.5706 79.4685 26.7087C79.5086 26.7863 79.5567 26.6002 79.5852 26.7325C79.5937 26.7724 79.6155 26.7815 79.6272 26.7347C79.7201 26.3632 79.6261 25.9939 79.5852 25.622" stroke="#F3F5FD" stroke-width="3" stroke-linecap="round"/>
<path d="M70.5014 21.3925C70.4731 21.3807 70.385 21.3574 70.4145 21.3643C70.5677 21.3999 70.6987 21.386 70.8526 21.3562C71.2917 21.2713 72.6303 21.2649 72.1878 21.3219C71.8636 21.3637 71.5364 21.4714 71.216 21.5398C70.2675 21.7425 69.3089 21.8772 68.3596 22.0746C68.2328 22.101 67.8837 22.2421 67.9771 22.1391C68.0968 22.0071 68.3951 21.9469 68.5404 21.893C69.5332 21.5242 70.5715 21.2759 71.6037 21.11C71.7292 21.0899 71.956 21.0242 72.087 21.0677C72.2284 21.1146 71.796 21.1186 71.6506 21.1444C70.7322 21.3071 69.8154 21.4759 68.895 21.6246C68.591 21.6737 68.2835 21.7385 67.9771 21.7658C67.7783 21.7836 67.9288 21.6823 68.0153 21.6387C69.0513 21.1172 70.2474 20.9175 71.3603 20.7832C71.7702 20.7337 72.9989 20.5761 72.5911 20.6459C71.7074 20.7973 70.8225 20.9146 69.9364 21.0475C69.5856 21.1001 69.2368 21.1678 68.8863 21.223C68.8532 21.2283 68.6113 21.2738 68.8081 21.2029C69.6538 20.8982 70.5373 20.7621 71.4124 20.6298C71.8759 20.5597 73.2622 20.3343 72.8067 20.4563C72.164 20.6284 71.4792 20.6751 70.8248 20.7468C70.3187 20.8023 69.8129 20.8507 69.3053 20.8841C69.1908 20.8916 68.8057 20.9894 68.6899 20.9042C68.5803 20.8237 68.9089 20.7381 69.0306 20.6863C69.5616 20.4603 70.1093 20.31 70.6718 20.2404C71.3205 20.16 71.9852 20.1213 72.6381 20.1213C73.1478 20.1213 71.6245 20.2491 71.1169 20.3029C70.3832 20.3807 69.6581 20.4884 68.9298 20.6137C68.7701 20.6411 68.9089 20.5681 68.9681 20.541C69.3143 20.3827 69.6841 20.2751 70.0494 20.198C70.7796 20.0439 71.5369 20.003 72.2782 19.978C72.3471 19.9757 72.3623 19.976 72.419 19.976C72.4393 19.976 72.3784 19.977 72.3582 19.978C72.0614 19.993 71.7651 20.0094 71.4681 20.0204C70.6874 20.0493 69.9079 20.1027 69.128 20.1496C69.1206 20.15 68.8651 20.154 68.8916 20.1415C69.1167 20.0346 69.3844 20.0003 69.62 19.9377C70.3151 19.7529 71.023 19.6192 71.7358 19.5785C71.9017 19.569 72.0678 19.5635 72.233 19.5422C72.3936 19.5215 71.9104 19.5657 71.7497 19.5846C70.8875 19.6858 70.0283 19.7945 69.1732 19.9599C69.0942 19.9752 68.6587 20.1279 68.5752 20.0608C68.5427 20.0347 68.6458 20.0196 68.6829 20.0043C68.8472 19.9365 69.0156 19.8818 69.1836 19.8287C70.242 19.4946 71.3607 19.3586 72.4573 19.3586C72.839 19.3586 71.6939 19.3842 71.3133 19.4191C70.7772 19.4682 70.2446 19.5464 69.7139 19.6471C69.3585 19.7145 68.9778 19.7624 68.6343 19.8953C68.5092 19.9437 68.6866 19.8912 68.6969 19.8872C68.929 19.7982 69.1581 19.6979 69.3957 19.629C70.1854 19.3998 71.0083 19.4221 71.814 19.3404C71.8914 19.3325 72.4894 19.2744 72.1044 19.2879C71.2569 19.3177 70.3802 19.4017 69.5452 19.5684C69.4575 19.5859 68.8186 19.7668 69.2323 19.633C69.735 19.4704 70.2334 19.3573 70.7518 19.2859C71.1113 19.2364 71.4698 19.1987 71.8262 19.1245C72.1453 19.058 71.6229 19.1362 71.5585 19.1487C70.9452 19.2681 70.3266 19.3236 69.7121 19.4312C69.6617 19.44 69.0113 19.5895 69.3679 19.4837C70.3475 19.1928 71.415 19.1539 72.4208 19.0761C72.617 19.0609 72.7007 19.1376 72.459 19.1406C71.911 19.1475 71.371 19.1931 70.8248 19.2496C70.1959 19.3146 69.5737 19.4131 68.9472 19.4958C68.8322 19.5109 68.9044 19.5037 68.9646 19.4958C69.1884 19.4663 69.4101 19.4098 69.6304 19.3565C70.2345 19.2105 70.8333 19.0784 71.4489 19.0155C71.6866 18.9913 71.9243 18.9701 72.1617 18.9429C72.5719 18.896 72.0287 19.012 71.9479 19.0236C71.0283 19.1552 70.0987 19.213 69.1836 19.3868C69.1022 19.4023 69.1859 19.3906 69.208 19.3868C69.3491 19.3622 69.4896 19.3293 69.6304 19.3021C70.1156 19.2082 70.6014 19.1429 71.0891 19.068C71.3487 19.0281 71.6074 18.9765 71.8679 18.9449C71.965 18.9331 72.0207 18.9288 72.1148 18.9247C72.16 18.9228 72.2782 18.8893 72.2504 18.9308C72.2148 18.9839 72.0447 18.9835 72 18.9873C71.7583 19.0079 71.5153 19.0139 71.2733 19.0317C70.6075 19.0805 69.939 19.1466 69.2793 19.2657C69.0273 19.3112 69.3538 19.2469 69.4236 19.2314C69.8543 19.1357 70.2954 19.0947 70.7309 19.0397C71.0864 18.9949 71.4485 18.9927 71.8019 18.9308C71.9472 18.9053 71.5219 18.9922 71.4785 18.9953C70.9693 19.0317 70.4591 19.0732 69.9521 19.1386C69.8973 19.1457 69.1734 19.222 69.58 19.1447C69.9162 19.0807 70.9269 18.9586 70.5866 18.9388C70.3366 18.9243 70.073 18.9879 69.8234 19.0115C69.7653 19.017 69.2575 19.0936 69.5313 18.9953C70.133 18.7795 72.0439 18.8137 71.4142 18.8137C70.8234 18.8137 70.2319 18.959 69.6391 18.959C69.5196 18.959 69.7179 18.9237 69.7504 18.9227C69.9331 18.9171 70.1077 18.8766 70.2893 18.8581C70.325 18.8545 70.7475 18.789 70.7448 18.7855C70.7066 18.7347 70.3342 18.8135 70.2806 18.8158C69.9874 18.8279 69.6988 18.8864 69.4044 18.8864C69.313 18.8864 69.5052 18.851 69.5313 18.8501C69.7431 18.8428 69.9558 18.8501 70.1676 18.8501C70.3322 18.8501 69.8385 18.8501 69.6739 18.8501C69.6212 18.8501 69.5684 18.8501 69.5157 18.8501C69.5005 18.8501 69.5639 18.8137 69.5487 18.8137C69.4741 18.8137 69.1953 18.8467 69.4062 18.8117C69.5325 18.7908 69.6868 18.7319 69.813 18.7411C69.8321 18.7425 69.637 18.7774 69.5783 18.7774C69.4578 18.7774 69.4231 18.7411 69.5626 18.7411C69.6456 18.7411 69.7477 18.76 69.8286 18.7391C69.9385 18.7107 69.5893 18.7411 69.6252 18.7411C69.6976 18.7411 70.0862 18.6486 69.8686 18.6967C69.7812 18.716 69.6605 18.7411 69.5783 18.7411C69.4246 18.7411 69.7055 18.7248 69.7504 18.7128C69.8432 18.6882 69.9526 18.7048 70.0477 18.7048C70.225 18.7048 70.4023 18.7048 70.5797 18.7048C70.6398 18.7048 70.8663 18.7411 70.6892 18.7411C70.5953 18.7411 70.402 18.7849 70.5797 18.7391C70.7475 18.6958 70.9198 18.7048 71.096 18.7048C71.2636 18.7048 71.4457 18.6685 71.5967 18.6685C72.4236 18.6685 73.2431 18.7037 74.0689 18.7774" stroke="#F3F5FD" stroke-width="3" stroke-linecap="round"/>
<path d="M69.5446 19.3267C69.5429 19.291 69.5379 19.2896 69.5613 19.317" stroke="#F3F5FD" stroke-width="3" stroke-linecap="round"/>
<path d="M69.582 19.2683L69.5983 19.2878" stroke="#F3F5FD" stroke-width="3" stroke-linecap="round"/>
<path d="M69.6207 19.2097C69.6156 19.1798 69.6034 19.185 69.629 19.161" stroke="#F3F5FD" stroke-width="3" stroke-linecap="round"/>
<path d="M69.6394 19.1524C69.6321 19.1396 69.6413 19.14 69.6483 19.1318" stroke="#F3F5FD" stroke-width="3" stroke-linecap="round"/>
<path d="M69.6445 19.1125L69.6705 19.1028" stroke="#F3F5FD" stroke-width="3" stroke-linecap="round"/>
<path d="M69.6817 19.0928C69.6677 19.091 69.6817 19.0907 69.6897 19.0928" stroke="#F3F5FD" stroke-width="3" stroke-linecap="round"/>
<path d="M69.694 19.0826C69.6859 19.0734 69.6992 19.0815 69.7026 19.0826" stroke="#F3F5FD" stroke-width="3" stroke-linecap="round"/>
<path d="M69.7166 19.0735C69.7078 19.0641 69.7004 19.0637 69.7166 19.0637" stroke="#F3F5FD" stroke-width="3" stroke-linecap="round"/>
<path d="M69.7148 19.0443V19.0649" stroke="#F3F5FD" stroke-width="3" stroke-linecap="round"/>
<path d="M69.7237 19.0443C69.7152 19.0338 69.7148 19.0249 69.7148 19.0443" stroke="#F3F5FD" stroke-width="3" stroke-linecap="round"/>
<path d="M69.7144 19.0331C69.7098 19.0288 69.7098 19.0288 69.7144 19.0331" stroke="#F3F5FD" stroke-width="3" stroke-linecap="round"/>
<path d="M69.7189 19.0346C69.7147 19.034 69.7005 19.0249 69.7106 19.0249" stroke="#F3F5FD" stroke-width="3" stroke-linecap="round"/>
<path d="M69.707 19.0258C69.707 19.0124 69.7065 19.0107 69.7164 19.0052" stroke="#F3F5FD" stroke-width="3" stroke-linecap="round"/>
<path d="M69.7148 19.0064C69.7148 18.993 69.7143 18.9913 69.7242 18.9858" stroke="#F3F5FD" stroke-width="3" stroke-linecap="round"/>
<path d="M69.7228 18.9873C69.7218 18.9783 69.7142 18.9762 69.7228 18.9762" stroke="#F3F5FD" stroke-width="3" stroke-linecap="round"/>
<path d="M69.7281 18.9773C69.7221 18.9699 69.7214 18.9654 69.7188 18.9567" stroke="#F3F5FD" stroke-width="3" stroke-linecap="round"/>
<path d="M69.731 18.958C69.7238 18.9482 69.7266 18.9522 69.731 18.9469" stroke="#F3F5FD" stroke-width="3" stroke-linecap="round"/>
<path d="M69.7305 18.947C69.7314 18.938 69.7332 18.9405 69.7389 18.9373" stroke="#F3F5FD" stroke-width="3" stroke-linecap="round"/>
<path d="M69.8569 19.1223C69.8184 19.1101 69.8187 19.1028 69.8569 19.1028" stroke="#F3F5FD" stroke-width="3" stroke-linecap="round"/>
<path d="M69.849 19.1124C69.8303 19.1005 69.8438 19.1027 69.8572 19.1027" stroke="#F3F5FD" stroke-width="3" stroke-linecap="round"/>
<path d="M69.8582 19.1027C69.8311 19.0992 69.8469 19.0833 69.8665 19.0833" stroke="#F3F5FD" stroke-width="3" stroke-linecap="round"/>
<path d="M69.84 19.0541C69.8307 19.0419 69.8187 19.018 69.84 19.0346" stroke="#F3F5FD" stroke-width="3" stroke-linecap="round"/>
<path d="M69.8294 19.0358C69.8271 19.0308 69.8082 19.0009 69.8205 19.0152" stroke="#F3F5FD" stroke-width="3" stroke-linecap="round"/>
<path d="M69.8249 19.0052C69.8189 19.0038 69.8086 18.9955 69.8086 18.9955" stroke="#F3F5FD" stroke-width="3" stroke-linecap="round"/>
<path d="M69.819 18.9665C69.8097 18.9544 69.8059 18.9483 69.8106 18.9373" stroke="#F3F5FD" stroke-width="3" stroke-linecap="round"/>
<path d="M69.8077 18.9284C69.8065 18.9157 69.8016 18.9151 69.8077 18.9078" stroke="#F3F5FD" stroke-width="3" stroke-linecap="round"/>
<path d="M69.8164 18.8691V18.8897" stroke="#F3F5FD" stroke-width="3" stroke-linecap="round"/>
<path d="M69.8043 18.8603C69.7904 18.8567 69.7918 18.8482 69.7954 18.8397" stroke="#F3F5FD" stroke-width="3" stroke-linecap="round"/>
<path d="M69.7911 18.8205C69.7844 18.8067 69.7693 18.7991 69.7827 18.7913" stroke="#F3F5FD" stroke-width="3" stroke-linecap="round"/>
<path d="M69.7867 18.7824C69.7859 18.7751 69.7803 18.7682 69.7773 18.7618" stroke="#F3F5FD" stroke-width="3" stroke-linecap="round"/>
<path d="M69.7717 18.7426C69.7596 18.741 69.7518 18.7304 69.7637 18.7231" stroke="#F3F5FD" stroke-width="3" stroke-linecap="round"/>
<path d="M69.7672 18.724C69.7612 18.7166 69.7605 18.7121 69.7578 18.7034" stroke="#F3F5FD" stroke-width="3" stroke-linecap="round"/>
<path d="M69.7639 18.6938C69.7518 18.6922 69.744 18.6816 69.7559 18.6743" stroke="#F3F5FD" stroke-width="3" stroke-linecap="round"/>
<path d="M69.7305 18.6548L69.7468 18.6743" stroke="#F3F5FD" stroke-width="3" stroke-linecap="round"/>
<path d="M69.7311 18.6743C69.7298 18.6596 69.7209 18.65 69.7148 18.6646" stroke="#F3F5FD" stroke-width="3" stroke-linecap="round"/>
<path d="M69.6984 18.6644C69.6867 18.6644 69.6852 18.6627 69.6901 18.6741" stroke="#F3F5FD" stroke-width="3" stroke-linecap="round"/>
<path d="M69.6923 18.6744C69.6784 18.6676 69.6832 18.6733 69.6923 18.6744" stroke="#F3F5FD" stroke-width="3" stroke-linecap="round"/>
<path d="M69.7031 18.6736C69.7057 18.6645 69.7136 18.6721 69.7194 18.6736" stroke="#F3F5FD" stroke-width="3" stroke-linecap="round"/>
<path d="M69.7305 18.6646H69.7468" stroke="#F3F5FD" stroke-width="3" stroke-linecap="round"/>
<path d="M69.7456 18.6631C69.741 18.6588 69.741 18.6588 69.7456 18.6631" stroke="#F3F5FD" stroke-width="3" stroke-linecap="round"/>
<path d="M69.7617 18.6645C69.7627 18.6556 69.7645 18.6581 69.7702 18.6548" stroke="#F3F5FD" stroke-width="3" stroke-linecap="round"/>
<path d="M69.793 18.6645C69.7953 18.6535 69.8016 18.6571 69.8093 18.6548" stroke="#F3F5FD" stroke-width="3" stroke-linecap="round"/>
<path d="M69.8203 18.6548H69.8614" stroke="#F3F5FD" stroke-width="3" stroke-linecap="round"/>
<path d="M69.8633 18.6548H69.8965" stroke="#F3F5FD" stroke-width="3" stroke-linecap="round"/>
<path d="M69.9141 18.6549C69.9162 18.6349 69.9385 18.6508 69.9472 18.6549" stroke="#F3F5FD" stroke-width="3" stroke-linecap="round"/>
<path d="M69.9531 18.6548C69.9547 18.6395 69.963 18.6497 69.9694 18.6548" stroke="#F3F5FD" stroke-width="3" stroke-linecap="round"/>
<path d="M69.9727 18.6547C69.9748 18.6342 69.9979 18.6485 70.0058 18.6547" stroke="#F3F5FD" stroke-width="3" stroke-linecap="round"/>
<path d="M70.0156 18.6545C70.0317 18.6527 70.0399 18.6521 70.0567 18.6545" stroke="#F3F5FD" stroke-width="3" stroke-linecap="round"/>
<path d="M70.0586 18.6548H70.0846" stroke="#F3F5FD" stroke-width="3" stroke-linecap="round"/>
<path d="M70.0898 18.6646C70.0898 18.6379 70.1105 18.6548 70.1309 18.6548" stroke="#F3F5FD" stroke-width="3" stroke-linecap="round"/>
<path d="M71.1582 32.7078C71.0678 32.7078 70.8288 32.6601 70.761 32.7289C70.5951 32.8975 70.1948 32.7483 70.0688 32.9742C69.9707 33.1502 70.4189 33.1761 70.5151 33.1264C70.6276 33.0684 70.8134 33.0503 70.945 33.0503C71.2354 33.0503 71.5427 33.1219 71.8285 33.1729C72.165 33.233 72.5045 33.2541 72.8431 33.3146C72.8748 33.3203 72.8972 33.3101 72.8869 33.266C72.8201 32.9817 72.4199 32.7925 72.2256 32.6782C71.5446 32.2775 70.9414 32.0934 70.1891 32.2427C70.0377 32.2727 69.65 32.3269 69.5588 32.5175C69.5198 32.5989 69.558 32.6526 69.6171 32.6697" stroke="#F3F5FD" stroke-width="4"/>
<path d="M70.1602 18.6548H70.1933" stroke="#F3F5FD" stroke-width="3" stroke-linecap="round"/>
<path d="M70.2182 18.655C70.2041 18.6368 70.2386 18.6532 70.2442 18.655" stroke="#F3F5FD" stroke-width="3" stroke-linecap="round"/>
<path d="M70.2539 18.6548H70.2636" stroke="#F3F5FD" stroke-width="3" stroke-linecap="round"/>
<path d="M70.2852 18.6545C70.2977 18.653 70.297 18.6511 70.3111 18.6545" stroke="#F3F5FD" stroke-width="3" stroke-linecap="round"/>
<path d="M70.3281 18.6548C70.33 18.6368 70.3817 18.6451 70.3939 18.6451" stroke="#F3F5FD" stroke-width="3" stroke-linecap="round"/>
<path d="M70.4141 18.645H70.44" stroke="#F3F5FD" stroke-width="3" stroke-linecap="round"/>
<path d="M70.4492 18.6548C70.4508 18.6407 70.4655 18.645 70.4752 18.645" stroke="#F3F5FD" stroke-width="3" stroke-linecap="round"/>
<path d="M70.4922 18.6445C70.4931 18.6371 70.5746 18.6445 70.5908 18.6445" stroke="#F3F5FD" stroke-width="3" stroke-linecap="round"/>
<path d="M70.6211 18.6549C70.623 18.638 70.6387 18.6511 70.6471 18.6549" stroke="#F3F5FD" stroke-width="3" stroke-linecap="round"/>
<path d="M70.6562 18.6549C70.6581 18.638 70.6738 18.6511 70.6822 18.6549" stroke="#F3F5FD" stroke-width="3" stroke-linecap="round"/>
<path d="M70.6953 18.6548C70.6969 18.6395 70.7052 18.6497 70.7116 18.6548" stroke="#F3F5FD" stroke-width="3" stroke-linecap="round"/>
<path d="M70.7578 18.6549C70.7602 18.6323 70.7977 18.6505 70.8071 18.6549" stroke="#F3F5FD" stroke-width="3" stroke-linecap="round"/>
<path d="M70.8164 18.6549C70.8185 18.6349 70.8409 18.6508 70.8496 18.6549" stroke="#F3F5FD" stroke-width="3" stroke-linecap="round"/>
<path d="M70.8633 18.6541C70.8922 18.6508 70.907 18.648 70.9372 18.6541" stroke="#F3F5FD" stroke-width="3" stroke-linecap="round"/>
<path d="M70.9844 18.6659V18.6548" stroke="#F3F5FD" stroke-width="3" stroke-linecap="round"/>
<path d="M71.0273 18.6646H71.0436" stroke="#F3F5FD" stroke-width="3" stroke-linecap="round"/>
<path d="M71.0898 18.6644C71.1046 18.6489 71.1217 18.6598 71.1391 18.6644" stroke="#F3F5FD" stroke-width="3" stroke-linecap="round"/>
<path d="M71.1719 18.6645C71.1736 18.6488 71.1892 18.6613 71.1978 18.6645" stroke="#F3F5FD" stroke-width="3" stroke-linecap="round"/>
<path d="M71.2109 18.6646C71.2132 18.6432 71.2435 18.6579 71.252 18.6646" stroke="#F3F5FD" stroke-width="3" stroke-linecap="round"/>
<path d="M71.2656 18.6645C71.2784 18.6511 71.2859 18.6544 71.2988 18.6645" stroke="#F3F5FD" stroke-width="3" stroke-linecap="round"/>
<path d="M71.3398 18.6646C71.3417 18.6466 71.3934 18.6548 71.4056 18.6548" stroke="#F3F5FD" stroke-width="3" stroke-linecap="round"/>
<path d="M71.4609 18.6548C71.4746 18.6548 71.488 18.6594 71.4941 18.645" stroke="#F3F5FD" stroke-width="3" stroke-linecap="round"/>
<path d="M71.5352 18.645C71.5521 18.6271 71.5612 18.6414 71.5762 18.6547" stroke="#F3F5FD" stroke-width="3" stroke-linecap="round"/>
<path d="M71.582 18.6548C71.6102 18.6548 71.6362 18.6505 71.6642 18.645" stroke="#F3F5FD" stroke-width="3" stroke-linecap="round"/>
<path d="M69.6133 32.6698C69.6236 32.7773 69.6597 32.9216 69.6807 33.0313C69.7183 33.2278 69.7228 33.1265 69.81 33.1265C70.116 33.1265 70.4221 33.1265 70.7281 33.1265C70.9148 33.1265 71.0957 33.2026 71.2855 33.2026C71.441 33.2026 71.5964 33.2026 71.7518 33.2026C71.8707 33.2026 71.952 33.2383 72.0579 33.2956C72.1563 33.3489 72.2947 33.3114 72.4003 33.3168C72.7522 33.3345 73.1092 33.4939 73.4496 33.5832" stroke="#F3F5FD" stroke-width="4"/>
<path d="M71.6335 19.4378L71.6211 19.4233" stroke="#F3F5FD" stroke-width="3" stroke-linecap="round"/>
<path d="M71.6538 19.3685C71.6445 19.3453 71.6467 19.3421 71.6655 19.3274" stroke="#F3F5FD" stroke-width="3" stroke-linecap="round"/>
<path d="M71.6927 19.2723C71.6906 19.2482 71.677 19.2312 71.7044 19.2312" stroke="#F3F5FD" stroke-width="3" stroke-linecap="round"/>
<path d="M71.7103 19.204C71.7074 19.1734 71.6903 19.1721 71.722 19.1628" stroke="#F3F5FD" stroke-width="3" stroke-linecap="round"/>
<path d="M71.7353 19.1079C71.7291 19.0911 71.7287 19.0824 71.7353 19.0668" stroke="#F3F5FD" stroke-width="3" stroke-linecap="round"/>
<path d="M71.7617 19.0529C71.7629 19.0401 71.7676 19.0357 71.7734 19.0255" stroke="#F3F5FD" stroke-width="3" stroke-linecap="round"/>
<path d="M72.418 18.8224C72.4213 18.8069 72.4305 18.8119 72.4414 18.8087" stroke="#F3F5FD" stroke-width="3" stroke-linecap="round"/>
<path d="M71.8218 19.0118C71.8102 18.9962 71.8711 18.9599 71.8796 18.9296" stroke="#F3F5FD" stroke-width="3" stroke-linecap="round"/>
<path d="M71.8654 18.9296C71.8497 18.9272 71.8444 18.9159 71.8654 18.9159" stroke="#F3F5FD" stroke-width="3" stroke-linecap="round"/>
<path d="M71.8591 18.9159C71.8384 18.9129 71.8478 18.8954 71.8709 18.9022" stroke="#F3F5FD" stroke-width="3" stroke-linecap="round"/>
<path d="M71.8564 18.8747C71.8446 18.8589 71.8567 18.854 71.8681 18.8473" stroke="#F3F5FD" stroke-width="3" stroke-linecap="round"/>
<path d="M71.8652 18.8475C71.8467 18.8448 71.8591 18.8309 71.8652 18.8201" stroke="#F3F5FD" stroke-width="3" stroke-linecap="round"/>
<path d="M71.8441 18.8062C71.8203 18.8062 71.8199 18.8007 71.8324 18.7788" stroke="#F3F5FD" stroke-width="3" stroke-linecap="round"/>
<path d="M71.8125 18.7788C71.7957 18.7766 71.7937 18.7677 71.7891 18.7513" stroke="#F3F5FD" stroke-width="3" stroke-linecap="round"/>
<path d="M71.7744 18.7384C71.7589 18.7288 71.762 18.7298 71.762 18.7239" stroke="#F3F5FD" stroke-width="3" stroke-linecap="round"/>
<path d="M71.7695 18.7241C71.7713 18.7078 71.7813 18.7103 71.793 18.7103" stroke="#F3F5FD" stroke-width="3" stroke-linecap="round"/>
<path d="M71.7969 18.7102L71.8203 18.6965" stroke="#F3F5FD" stroke-width="3" stroke-linecap="round"/>
<path d="M71.7969 18.6965H71.8316" stroke="#F3F5FD" stroke-width="3" stroke-linecap="round"/>
<path d="M71.8281 18.6965C71.8172 18.695 71.8134 18.6896 71.8047 18.6827" stroke="#F3F5FD" stroke-width="3" stroke-linecap="round"/>
<path d="M71.7848 18.6827C71.7698 18.6815 71.7568 18.6788 71.7733 18.6689" stroke="#F3F5FD" stroke-width="3" stroke-linecap="round"/>
<path d="M71.7736 18.6689H71.7617" stroke="#F3F5FD" stroke-width="3" stroke-linecap="round"/>
<path d="M71.7481 18.6699C71.7385 18.657 71.7422 18.6623 71.7481 18.6554" stroke="#F3F5FD" stroke-width="3" stroke-linecap="round"/>
<path d="M71.7617 18.6543C71.7634 18.6429 71.7673 18.6512 71.7736 18.6543" stroke="#F3F5FD" stroke-width="3" stroke-linecap="round"/>
<path d="M69.8035 33.0942C69.7993 33.1482 69.7734 33.1929 69.7542 33.2374C69.732 33.2889 69.7001 33.2761 69.6533 33.2761C69.6114 33.2761 69.6171 33.2639 69.6635 33.2534C69.727 33.239 69.7896 33.2249 69.8528 33.2121C69.9758 33.1873 70.1056 33.1993 70.2301 33.2003C70.3032 33.2009 70.3461 33.2458 70.4114 33.2458C70.6084 33.2458 70.8095 33.2586 71.0077 33.261C71.137 33.2625 71.2655 33.2761 71.3951 33.2761C71.5213 33.2761 71.6498 33.2673 71.7745 33.2921C72.1705 33.3709 72.578 33.2853 72.9766 33.3367" stroke="#F3F5FD" stroke-width="4"/>
<path d="M71.8203 18.6418C71.8229 18.617 71.8737 18.6281 71.8897 18.6281" stroke="#F3F5FD" stroke-width="3" stroke-linecap="round"/>
<path d="M71.9023 18.6416C71.9047 18.6199 71.9166 18.6344 71.9258 18.6416" stroke="#F3F5FD" stroke-width="3" stroke-linecap="round"/>
<path d="M71.9385 18.6411C71.9149 18.6381 71.9444 18.6341 71.9618 18.6411" stroke="#F3F5FD" stroke-width="3" stroke-linecap="round"/>
<path d="M71.9961 18.6554C71.9984 18.6334 72.0282 18.6417 72.0424 18.6417" stroke="#F3F5FD" stroke-width="3" stroke-linecap="round"/>
<path d="M72.0547 18.6554C72.057 18.633 72.087 18.6417 72.101 18.6417" stroke="#F3F5FD" stroke-width="3" stroke-linecap="round"/>
<path d="M72.1172 18.641C72.142 18.641 72.2191 18.6322 72.2235 18.641" stroke="#F3F5FD" stroke-width="3" stroke-linecap="round"/>
<path d="M72.2319 18.6417C72.2134 18.6179 72.2484 18.6381 72.2563 18.6417" stroke="#F3F5FD" stroke-width="3" stroke-linecap="round"/>
<path d="M72.2695 18.6416C72.2723 18.6161 72.3763 18.6416 72.3995 18.6416" stroke="#F3F5FD" stroke-width="3" stroke-linecap="round"/>
<path d="M72.3984 18.6554C72.4114 18.6569 72.4212 18.6634 72.4332 18.6691" stroke="#F3F5FD" stroke-width="3" stroke-linecap="round"/>
<path d="M73.082 18.7649C73.0856 18.6985 73.1285 18.7325 73.1746 18.7375" stroke="#F3F5FD" stroke-width="3" stroke-linecap="round"/>
<path d="M70.4461 32.011C70.3979 32.011 70.4037 32.0225 70.4313 32.0634" stroke="#F3F5FD" stroke-width="3" stroke-linecap="round"/>
<path d="M69.7773 26.2925V28.2555" stroke="#F3F5FD" stroke-width="4"/>
<path d="M70.4115 32.2032C70.356 32.206 70.3746 32.227 70.3968 32.2731" stroke="#F3F5FD" stroke-width="3" stroke-linecap="round"/>
<path d="M70.3672 32.3254H70.3815" stroke="#F3F5FD" stroke-width="3" stroke-linecap="round"/>
<path d="M70.3811 32.3779C70.3557 32.3801 70.3709 32.3829 70.3811 32.3954" stroke="#F3F5FD" stroke-width="3" stroke-linecap="round"/>
<path d="M70.3719 32.4478C70.3421 32.4635 70.3255 32.4596 70.3563 32.4827" stroke="#F3F5FD" stroke-width="3" stroke-linecap="round"/>
<path d="M70.3083 32.57C70.2877 32.57 70.2851 32.567 70.2937 32.5875" stroke="#F3F5FD" stroke-width="3" stroke-linecap="round"/>
<path d="M70.2152 32.675C70.1845 32.675 70.1654 32.6708 70.1562 32.6925" stroke="#F3F5FD" stroke-width="3" stroke-linecap="round"/>
<path d="M70.0992 32.7448C70.0726 32.7448 70.0804 32.7472 70.0992 32.7622" stroke="#F3F5FD" stroke-width="3" stroke-linecap="round"/>
<path d="M70.0943 32.7974C70.0804 32.778 70.1031 32.7951 70.1089 32.7974" stroke="#F3F5FD" stroke-width="3" stroke-linecap="round"/>
<path d="M70.1284 32.8322C70.1001 32.8322 70.1062 32.832 70.1284 32.8496" stroke="#F3F5FD" stroke-width="3" stroke-linecap="round"/>
<path d="M70.1401 32.9197C70.1118 32.9197 70.1179 32.9195 70.1401 32.9372" stroke="#F3F5FD" stroke-width="3" stroke-linecap="round"/>
<path d="M70.1382 32.9896C70.1118 32.9896 70.1193 32.992 70.1382 33.0071" stroke="#F3F5FD" stroke-width="3" stroke-linecap="round"/>
<path d="M70.1392 33.0585C70.1102 33.0487 70.1205 33.0563 70.1392 33.0585" stroke="#F3F5FD" stroke-width="3" stroke-linecap="round"/>
<path d="M70.159 33.0944C70.1434 33.0762 70.1581 33.0882 70.1739 33.0944" stroke="#F3F5FD" stroke-width="3" stroke-linecap="round"/>
<path d="M70.1724 33.1117C70.1431 33.0884 70.1484 33.1085 70.1724 33.1117" stroke="#F3F5FD" stroke-width="3" stroke-linecap="round"/>
<path d="M70.1719 33.1118V33.1303" stroke="#F3F5FD" stroke-width="3" stroke-linecap="round"/>
<path d="M70.1728 33.1293C70.1485 33.1312 70.1582 33.1302 70.1582 33.1467" stroke="#F3F5FD" stroke-width="3" stroke-linecap="round"/>
<path d="M70.1734 33.1816C70.1469 33.1816 70.1544 33.184 70.1734 33.1991" stroke="#F3F5FD" stroke-width="3" stroke-linecap="round"/>
<path d="M70.1562 33.1991H70.1706" stroke="#F3F5FD" stroke-width="3" stroke-linecap="round"/>
<path d="M70.1728 33.2167C70.1485 33.2186 70.1582 33.2176 70.1582 33.2341" stroke="#F3F5FD" stroke-width="3" stroke-linecap="round"/>
<path d="M70.1603 33.2877C70.1497 33.275 70.1497 33.275 70.1603 33.2877" stroke="#F3F5FD" stroke-width="3" stroke-linecap="round"/>
<path d="M70.1562 33.3038H70.1873" stroke="#F3F5FD" stroke-width="3" stroke-linecap="round"/>
<path d="M70.2041 33.3389C70.1762 33.3353 70.1773 33.3145 70.2041 33.3564" stroke="#F3F5FD" stroke-width="3" stroke-linecap="round"/>
<path d="M70.2018 33.3738C70.2002 33.3577 70.1972 33.3622 70.1875 33.3563" stroke="#F3F5FD" stroke-width="3" stroke-linecap="round"/>
<path d="M69.9171 33.3389C69.9033 33.3336 69.8422 33.3214 69.8876 33.3214" stroke="#F3F5FD" stroke-width="3" stroke-linecap="round"/>
<path d="M69.8773 33.3388C69.8407 33.3058 69.8506 33.3136 69.8618 33.3388" stroke="#F3F5FD" stroke-width="3" stroke-linecap="round"/>
<path d="M69.8424 33.3214L69.8281 33.3389" stroke="#F3F5FD" stroke-width="3" stroke-linecap="round"/>
<path d="M69.8243 33.3389C69.8089 33.3414 69.8201 33.3475 69.8243 33.3574" stroke="#F3F5FD" stroke-width="3" stroke-linecap="round"/>
<path d="M70.1607 32.8148C70.1362 32.7527 70.17 32.7725 70.2049 32.7973" stroke="#F3F5FD" stroke-width="3" stroke-linecap="round"/>
<path d="M70.1918 32.8496C70.1599 32.8541 70.2002 32.9344 70.2073 32.9544" stroke="#F3F5FD" stroke-width="3" stroke-linecap="round"/>
<path d="M70.1875 33.0419C70.1318 33.0481 70.1627 33.0663 70.1875 33.0943" stroke="#F3F5FD" stroke-width="3" stroke-linecap="round"/>
<path d="M70.1732 33.1292C70.1271 33.1292 70.1434 33.1215 70.1434 33.1641" stroke="#F3F5FD" stroke-width="3" stroke-linecap="round"/>
<path d="M70.0846 33.1992C70.0719 33.1857 70.0771 33.1909 70.0703 33.1992" stroke="#F3F5FD" stroke-width="3" stroke-linecap="round"/>
<path d="M70.0505 33.1991C70.0262 33.1973 69.9941 33.1744 70.0358 33.1991" stroke="#F3F5FD" stroke-width="3" stroke-linecap="round"/>
<path d="M70.0547 33.2165C70.0547 33.193 70.0547 33.2282 70.0547 33.234" stroke="#F3F5FD" stroke-width="3" stroke-linecap="round"/>
<path d="M70.0391 33.2515H70.0833" stroke="#F3F5FD" stroke-width="3" stroke-linecap="round"/>
<path d="M70.0828 33.2864C70.0592 33.2898 70.0749 33.3076 70.0828 33.3213" stroke="#F3F5FD" stroke-width="3" stroke-linecap="round"/>
<path d="M70.082 33.3389H70.0963" stroke="#F3F5FD" stroke-width="3" stroke-linecap="round"/>
<path d="M70.0963 33.3563L70.082 33.3389" stroke="#F3F5FD" stroke-width="3" stroke-linecap="round"/>
<path d="M70.0066 33.339C69.989 33.3292 69.9339 33.3049 69.9771 33.339" stroke="#F3F5FD" stroke-width="3" stroke-linecap="round"/>
<path d="M69.965 33.3401C69.9544 33.3274 69.9544 33.3274 69.965 33.3401" stroke="#F3F5FD" stroke-width="3" stroke-linecap="round"/>
<path d="M69.9505 33.3213C69.9284 33.3213 69.9159 33.3267 69.9062 33.3038" stroke="#F3F5FD" stroke-width="3" stroke-linecap="round"/>
<path d="M69.8667 33.3038C69.8367 33.3038 69.7973 33.3178 69.8372 33.2864" stroke="#F3F5FD" stroke-width="3" stroke-linecap="round"/>
<path d="M69.8555 33.2864C69.8811 33.2902 69.8718 33.3084 69.8997 33.2864" stroke="#F3F5FD" stroke-width="3" stroke-linecap="round"/>
<path d="M69.9297 33.3038H70.0351" stroke="#F3F5FD" stroke-width="3" stroke-linecap="round"/>
<path d="M70.0703 33.3038C70.0723 33.3209 70.077 33.3085 70.0846 33.3038" stroke="#F3F5FD" stroke-width="3" stroke-linecap="round"/>
<path d="M70.1445 33.3039C70.1477 33.2742 70.1988 33.2864 70.2183 33.2864" stroke="#F3F5FD" stroke-width="3" stroke-linecap="round"/>
<path d="M70.2383 33.3038C70.2669 33.3038 70.2851 33.2991 70.312 33.2864" stroke="#F3F5FD" stroke-width="3" stroke-linecap="round"/>
<path d="M70.3393 33.2864C70.3198 33.3125 70.3447 33.2938 70.3543 33.2864" stroke="#F3F5FD" stroke-width="3" stroke-linecap="round"/>
<path d="M70.3847 33.2855C70.3536 33.2816 70.4052 33.276 70.4289 33.2855" stroke="#F3F5FD" stroke-width="3" stroke-linecap="round"/>
<path d="M70.4297 33.2864C70.459 33.2864 70.4925 33.3038 70.4444 33.3038" stroke="#F3F5FD" stroke-width="3" stroke-linecap="round"/>
<path d="M70.4297 33.3039C70.4297 33.2804 70.4297 33.3156 70.4297 33.3214" stroke="#F3F5FD" stroke-width="3" stroke-linecap="round"/>
<path d="M70.3828 33.3389H70.4139" stroke="#F3F5FD" stroke-width="3" stroke-linecap="round"/>
<path d="M70.3709 33.3389H70.3398" stroke="#F3F5FD" stroke-width="3" stroke-linecap="round"/>
<path d="M70.1875 33.3389H70.3079" stroke="#F3F5FD" stroke-width="3" stroke-linecap="round"/>
<path d="M70.0547 33.3389H70.1601" stroke="#F3F5FD" stroke-width="3" stroke-linecap="round"/>
<path d="M70.0233 33.3389C69.9949 33.3389 69.9506 33.3311 69.918 33.3564" stroke="#F3F5FD" stroke-width="3" stroke-linecap="round"/>
<path d="M69.8731 33.3563C69.8285 33.3563 69.7861 33.3738 69.7452 33.3738C69.709 33.3738 69.6503 33.3822 69.7075 33.4087" stroke="#F3F5FD" stroke-width="3" stroke-linecap="round"/>
<path d="M69.7331 33.4088L69.7188 33.3914" stroke="#F3F5FD" stroke-width="3" stroke-linecap="round"/>
<path d="M69.7812 33.4087C69.7843 33.3811 69.8001 33.3996 69.8123 33.4087" stroke="#F3F5FD" stroke-width="3" stroke-linecap="round"/>
<path d="M69.9062 33.374C69.9426 33.3713 69.9416 33.3558 69.98 33.374" stroke="#F3F5FD" stroke-width="3" stroke-linecap="round"/>
<path d="M70.0078 33.3563C70.0361 33.3563 70.0506 33.3389 70.0815 33.3389" stroke="#F3F5FD" stroke-width="3" stroke-linecap="round"/>
<path d="M70.0938 33.3389H70.1248" stroke="#F3F5FD" stroke-width="3" stroke-linecap="round"/>
<path d="M70.1875 33.3389C70.2319 33.3389 70.2856 33.3503 70.323 33.3214" stroke="#F3F5FD" stroke-width="3" stroke-linecap="round"/>
<path d="M76.5312 31.865C76.5874 31.865 76.6171 31.863 76.6667 31.8301" stroke="#F3F5FD" stroke-width="3" stroke-linecap="round"/>
<path d="M67.6411 34.3204C67.5906 34.3322 67.3269 34.5402 67.3362 34.5988C67.3588 34.742 67.5703 34.7058 67.6672 34.7058C67.8679 34.7058 67.9251 34.5473 68.0475 34.4183C68.119 34.343 68.2156 34.4095 68.2944 34.3449C68.387 34.269 68.5214 34.1883 68.6399 34.1736C68.7146 34.1643 68.5181 34.406 68.454 34.4305C68.3759 34.4605 68.8017 34.4758 68.9244 34.4183C69.3315 34.2277 69.7545 34.2654 70.202 34.2654C70.6443 34.2654 71.0634 34.2103 71.5086 34.2103" stroke="black" stroke-linecap="round"/>
<path d="M67.3736 17.6372C67.3666 17.6741 67.2483 17.858 67.3039 17.8207C67.4322 17.7347 67.534 17.6923 67.6872 17.6923" stroke="#F3F5FD" stroke-linecap="round"/>
<path d="M67.272 17.8574C67.1326 17.8574 66.9933 17.8574 66.8539 17.8574C66.8361 17.8574 66.9254 17.8393 66.9468 17.7901C67.0301 17.5986 66.9927 17.8359 66.9178 17.9246C66.705 18.1768 67.0741 17.9458 67.1443 17.9246C67.2955 17.8791 67.3916 17.8721 67.5101 17.7472C67.6488 17.6011 67.8881 17.7035 68.056 17.6249C68.2583 17.5302 68.5404 17.4719 68.7615 17.4719C69.75 17.4719 70.7353 17.4169 71.7145 17.4169" stroke="black" stroke-linecap="round"/>
<path d="M71.6562 36.3277C71.6562 35.7942 71.725 35.3114 71.725 34.7738" stroke="black" stroke-linecap="round"/>
<path d="M71.686 36.4757C71.5011 36.4513 71.6083 35.9048 71.6157 35.7727C71.6248 35.6093 71.686 35.4534 71.686 35.2917" stroke="black" stroke-linecap="round"/>
<path d="M71.7344 14.6681C71.7344 15.0295 71.7344 15.391 71.7344 15.7524C71.7344 16.0593 71.8815 16.2174 71.9719 16.5031" stroke="black" stroke-linecap="round"/>
<path d="M71.9709 16.5032C71.9233 16.7539 71.8125 17.2687 71.8125 16.7071C71.8125 16.4167 71.8125 16.1263 71.8125 15.8359" stroke="black" stroke-linecap="round"/>
<path d="M68.6108 32.9424C68.5443 32.9774 68.5122 33.0614 68.4398 33.0915C68.3306 33.1368 68.4171 33.2034 68.5003 33.223C68.5888 33.2439 68.7421 33.0463 68.8091 33.1672C68.8673 33.2723 68.7368 33.3271 68.6691 33.3641C68.6014 33.4012 68.54 33.4687 68.4609 33.4733C68.386 33.4778 68.3344 33.476 68.2627 33.5108C68.1497 33.5656 68.0288 33.6181 67.9032 33.6296C67.7346 33.6451 67.5585 33.6738 67.3924 33.7109C67.3019 33.7311 67.2103 33.7459 67.12 33.7667C67.0962 33.7722 66.8565 33.8589 66.8899 33.7747C66.9612 33.5954 67.2114 33.5444 67.3712 33.5196C67.4053 33.5143 67.67 33.4597 67.6088 33.5563C67.5947 33.5786 67.4749 33.7456 67.4393 33.7045C67.379 33.6348 67.5015 33.5811 67.5483 33.5881" stroke="#F3F5FD" stroke-width="0.1" stroke-linecap="round"/>
<path d="M67.382 33.7461C67.3539 33.8274 67.2379 33.8322 67.1717 33.8322C67.0602 33.8322 66.9737 33.887 66.8788 33.9454C66.836 33.9716 66.8248 33.9672 66.8886 33.9581C66.9293 33.9523 66.9495 33.9423 66.981 33.9183C67.0293 33.8812 67.0961 33.9113 67.1369 33.8752C67.1771 33.8395 67.2943 33.8609 67.2943 33.8609C67.2943 33.8609 67.222 33.8584 67.186 33.8617C67.1538 33.8646 67.1241 33.8941 67.1028 33.9183C67.0823 33.9415 67.0173 33.9483 67.0581 33.9214C67.0942 33.8977 67.1377 33.8941 67.1777 33.8824C67.285 33.851 67.3925 33.8228 67.5016 33.8003C67.6339 33.773 67.7624 33.7655 67.8929 33.7237C68.0813 33.6633 68.2601 33.652 68.4536 33.6281C68.6111 33.6085 68.767 33.5688 68.9243 33.5483C69.0163 33.5364 69.1089 33.523 69.1968 33.4893C69.2127 33.4832 69.1211 33.4602 69.1165 33.459C69.0419 33.4397 68.9681 33.4306 68.891 33.4335C68.8574 33.4348 68.3788 33.475 68.4733 33.5818C68.5175 33.6318 68.5964 33.6022 68.642 33.5762C68.6919 33.5479 68.7569 33.4965 68.664 33.4885C68.5874 33.482 68.3192 33.4329 68.2614 33.5133C68.2481 33.5318 68.3779 33.5733 68.3855 33.5754C68.4345 33.5892 68.4459 33.5803 68.4854 33.5595" stroke="#F3F5FD" stroke-width="0.1" stroke-linecap="round"/>
<path d="M68.2194 35.3558C68.0132 35.3477 67.8155 35.3732 67.6156 35.433C67.5342 35.4574 67.4545 35.4853 67.3722 35.507C67.3462 35.5138 67.0572 35.591 67.2147 35.567C67.3113 35.5522 67.4073 35.5164 67.5009 35.4873C67.6511 35.4406 67.804 35.4276 67.9573 35.3977C68.1081 35.3683 68.2813 35.3515 68.4198 35.2785C68.5754 35.1966 68.7392 35.1401 68.9058 35.0879C68.9606 35.0707 69.0231 35.0599 69.0805 35.0599C69.1182 35.0599 69.1075 35.0816 69.1211 35.1092C69.1407 35.149 69.5531 35.1049 69.2147 35.1339C68.9886 35.1533 68.7618 35.1372 68.5415 35.2046C68.4004 35.2477 68.2653 35.3403 68.1172 35.3541C67.9979 35.3653 68.2412 35.3137 68.2669 35.3048C68.3393 35.2798 68.3958 35.2589 68.4721 35.2522" stroke="#F3F5FD" stroke-width="0.1" stroke-linecap="round"/>
<path d="M70.6523 37.0693C70.6523 36.6975 70.7332 36.3425 70.8432 35.9909C70.8902 35.8406 70.9268 35.6748 70.9308 35.5155C70.935 35.349 70.9123 35.746 70.9089 35.7967C70.9025 35.8913 70.8915 36.0132 70.9205 36.105C70.948 36.1919 70.9772 36.2544 70.9772 36.3481C70.9772 36.404 70.9854 36.4659 70.9759 36.5206C70.9613 36.6053 70.9338 36.7973 70.8844 36.8493" stroke="#F3F5FD" stroke-width="0.1" stroke-linecap="round"/>
<path d="M1.00136 34.4914C1.00136 34.3373 0.99164 34.1752 1.02417 34.0241C1.03414 33.9777 1.05211 33.9336 1.06461 33.888C1.06656 33.8809 1.07434 33.8099 1.0812 33.8562C1.09891 33.976 1.08597 34.0785 1.07653 34.1953C1.07082 34.2659 1.08078 34.1421 1.0812 34.1362C1.08944 34.0195 1.0748 33.908 1.07808 33.7921C1.08295 33.6201 1.09467 33.449 1.09467 33.2769" stroke="#F3F5FD" stroke-width="0.1" stroke-linecap="round"/>
<path d="M67.0352 18.8427C66.949 18.8427 66.8658 18.8467 66.7816 18.8248C66.7004 18.8037 66.6256 18.7581 66.5431 18.745C66.4912 18.7368 66.5834 18.7504 66.5961 18.749C66.6533 18.7427 66.709 18.7192 66.7664 18.7171C66.808 18.7156 66.8498 18.7171 66.8914 18.7171C66.9827 18.7171 67.071 18.6636 67.1602 18.6473C67.2501 18.6308 67.3371 18.6095 67.429 18.5955C67.6808 18.5569 67.9133 18.4922 68.1596 18.4299" stroke="#F3F5FD" stroke-width="0.1" stroke-linecap="round"/>
<path d="M67.0342 16.9403C67.0053 16.9403 66.7199 16.9842 66.7635 17.0301C66.7906 17.0586 66.6355 17.0489 66.5912 17.0699C66.4814 17.122 66.6026 17.1078 66.665 17.0919C66.7479 17.0708 66.8037 17.0071 66.8894 16.9932C66.9938 16.9762 67.0825 16.9238 67.1913 16.9224C67.248 16.9216 67.3001 16.9251 67.3541 16.9044C67.4865 16.8537 67.2681 16.9408 67.2377 16.9473C67.1488 16.9662 66.9502 16.9441 66.8676 17.0021C66.8188 17.0364 67.0715 16.9742 67.0947 16.9663C67.2375 16.9174 67.384 16.8886 67.5282 16.8506" stroke="#F3F5FD" stroke-width="0.1" stroke-linecap="round"/>
<path d="M72.5876 14.8835C72.5876 15.2185 72.5173 15.5514 72.514 15.8862C72.5112 16.1548 72.5314 16.4048 72.5508 16.67C72.5626 16.8314 72.5692 16.9891 72.5692 17.1509C72.5692 17.2382 72.5651 17.4998 72.5733 17.4129C72.5847 17.2927 72.5903 17.1718 72.5774 17.0517C72.5494 16.7907 72.5526 16.5549 72.5866 16.2948C72.6146 16.081 72.6355 15.8392 72.5692 15.6296C72.54 15.5374 72.4349 15.5231 72.4628 15.6404C72.4779 15.7043 72.5061 15.7665 72.5221 15.8323C72.6025 16.1616 72.6899 16.4923 72.7841 16.8177C72.7926 16.847 72.8287 16.956 72.8128 17.001C72.7874 17.0727 72.7199 16.8771 72.7033 16.8026C72.6758 16.679 72.6636 16.5529 72.647 16.4274C72.6389 16.3662 72.6348 16.4416 72.6337 16.4555C72.6212 16.6189 72.6303 16.7848 72.6061 16.9471C72.5948 17.0226 72.5696 17.0941 72.561 17.1703C72.5585 17.1925 72.5611 17.4205 72.5242 17.3309C72.4933 17.2561 72.4721 17.1773 72.4505 17.0991C72.427 17.0141 72.4909 17.04 72.4945 16.9654C72.4996 16.8606 72.4955 16.7546 72.4955 16.6495" stroke="#F3F5FD" stroke-width="0.1" stroke-linecap="round"/>
</svg>
