<svg width="30" height="40" viewBox="0 0 30 40" fill="none" xmlns="http://www.w3.org/2000/svg">
<rect width="30" height="40" fill="white"/>
<path d="M28.2632 32.909H1.73859C1.43237 32.9095 1.13148 32.8242 0.866444 32.6618C0.601409 32.4994 0.38166 32.2657 0.229496 31.9843C0.0773318 31.703 -0.00183372 31.384 3.22386e-05 31.0598C0.0018982 30.7356 0.0847291 30.4177 0.240121 30.1383C1.61735 27.6792 2.64947 24.171 2.842 23.4927C2.85002 23.4648 2.854 23.4358 2.85381 23.4066V17.5681C2.85381 17.5619 2.85381 17.5552 2.85381 17.5489C2.92374 14.5749 3.60576 12.0201 4.87991 9.96141C5.9075 8.29939 7.31424 6.96189 9.06063 5.98544C12.0013 4.34073 14.8729 4.29554 14.9936 4.29458H15.0064C15.1271 4.29458 17.9987 4.34266 20.9394 5.98544C22.6858 6.96189 24.0925 8.29939 25.1201 9.96141C26.3942 12.022 27.0763 14.5768 27.1462 17.5489C27.1462 17.5552 27.1462 17.5619 27.1462 17.5681V23.4066C27.1459 23.4358 27.1499 23.4648 27.158 23.4927C27.3505 24.171 28.384 27.6797 29.7599 30.1383C29.9153 30.4177 29.9981 30.7356 30 31.0598C30.0018 31.384 29.9227 31.703 29.7705 31.9843C29.6183 32.2657 29.3986 32.4994 29.1336 32.6618C28.8685 32.8242 28.5676 32.9095 28.2614 32.909H28.2632ZM4.30732 17.5782V23.4066C4.30742 23.5857 4.28263 23.7639 4.23376 23.9354C4.0326 24.6436 2.9537 28.3104 1.4902 30.922C1.46487 30.9662 1.45148 31.0169 1.45148 31.0686C1.45148 31.1203 1.46487 31.171 1.4902 31.2153C1.5148 31.2623 1.55094 31.3015 1.59481 31.3287C1.63869 31.3559 1.68867 31.37 1.73949 31.3696H28.2632C28.3141 31.37 28.364 31.3559 28.4079 31.3287C28.4518 31.3015 28.4879 31.2623 28.5125 31.2153C28.5379 31.171 28.5512 31.1203 28.5512 31.0686C28.5512 31.0169 28.5379 30.9662 28.5125 30.922C27.0863 28.3739 26.0519 24.9302 25.7685 23.935C25.72 23.7634 25.6954 23.5852 25.6954 23.4061V17.5782C25.5778 12.7403 23.7501 9.29602 20.2619 7.34554C17.6963 5.91333 15.1521 5.83592 15.0009 5.83304C14.8592 5.83641 12.2646 5.91766 9.69316 7.3715C6.23716 9.32679 4.42356 12.7614 4.30732 17.5782Z" fill="#D1D1D1"/>
<path d="M11.519 6.5024C11.3263 6.5024 11.1415 6.42136 11.0052 6.2771C10.869 6.13284 10.7924 5.93719 10.7924 5.73317V4.45913C10.7924 3.2765 11.2362 2.1423 12.026 1.30605C12.8158 0.4698 13.887 0 15.004 0C16.121 0 17.1923 0.4698 17.9821 1.30605C18.7719 2.1423 19.2156 3.2765 19.2156 4.45913V5.70913C19.2156 5.91315 19.1391 6.1088 19.0028 6.25306C18.8666 6.39732 18.6818 6.47837 18.4891 6.47837C18.2964 6.47837 18.1116 6.39732 17.9754 6.25306C17.8391 6.1088 17.7626 5.91315 17.7626 5.70913V4.45913C17.7626 3.68452 17.4719 2.94164 16.9546 2.39391C16.4373 1.84617 15.7356 1.53846 15.004 1.53846C14.2724 1.53846 13.5708 1.84617 13.0534 2.39391C12.5361 2.94164 12.2455 3.68452 12.2455 4.45913V5.73317C12.2455 5.93719 12.1689 6.13284 12.0327 6.2771C11.8964 6.42136 11.7117 6.5024 11.519 6.5024ZM15.004 40C11.6915 40 8.99609 37.1466 8.99609 33.6389V32.1399C8.99609 31.9359 9.07264 31.7402 9.20889 31.596C9.34514 31.4517 9.52993 31.3707 9.72262 31.3707H20.2854C20.4781 31.3707 20.6629 31.4517 20.7992 31.596C20.9354 31.7402 21.012 31.9359 21.012 32.1399V33.6389C21.012 37.1466 18.3188 40 15.004 40ZM10.4492 32.9091V33.6389C10.4492 34.918 10.929 36.1446 11.7832 37.049C12.6374 37.9534 13.796 38.4615 15.004 38.4615C16.2121 38.4615 17.3706 37.9534 18.2248 37.049C19.079 36.1446 19.5589 34.918 19.5589 33.6389V32.9091H10.4492Z" fill="#D1D1D1"/>
<rect x="6.42969" y="9.41146" width="18.2143" height="21.1765" fill="#D1D1D1"/>
<rect x="5.35547" y="10.5885" width="3.21429" height="21.1765" fill="#D1D1D1"/>
<rect x="4.28516" y="11.7643" width="2.14286" height="17.6471" fill="#D1D1D1"/>
<rect x="3.21484" y="25.8828" width="23.5714" height="5.88235" fill="#D1D1D1"/>
<ellipse cx="3.74888" cy="29.9998" rx="2.67857" ry="2.94118" fill="#D1D1D1"/>
<ellipse cx="5.89341" cy="25.294" rx="2.67857" ry="2.94118" fill="#D1D1D1"/>
<ellipse cx="24.1083" cy="24.1183" rx="2.67857" ry="2.94118" fill="#D1D1D1"/>
<ellipse cx="24.1083" cy="20.5883" rx="2.67857" ry="2.94118" fill="#D1D1D1"/>
<ellipse cx="24.1083" cy="17.0584" rx="2.67857" ry="2.94118" fill="#D1D1D1"/>
<ellipse cx="23.034" cy="14.7055" rx="2.67857" ry="2.94118" fill="#D1D1D1"/>
<ellipse cx="20.8934" cy="9.99977" rx="2.67857" ry="2.94118" fill="#D1D1D1"/>
<ellipse cx="17.6786" cy="8.82399" rx="2.67857" ry="2.94118" fill="#D1D1D1"/>
<ellipse cx="14.4637" cy="7.6469" rx="2.67857" ry="2.94118" fill="#D1D1D1"/>
<ellipse cx="11.2489" cy="8.82399" rx="2.67857" ry="2.94118" fill="#D1D1D1"/>
<ellipse cx="8.03404" cy="11.1769" rx="2.67857" ry="2.94118" fill="#D1D1D1"/>
<ellipse cx="9.10826" cy="9.99977" rx="2.67857" ry="2.94118" fill="#D1D1D1"/>
<ellipse cx="26.2489" cy="29.9998" rx="2.67857" ry="2.94118" fill="#D1D1D1"/>
</svg>
