<svg width="33" height="39" viewBox="0 0 33 39" fill="none" xmlns="http://www.w3.org/2000/svg">
<path d="M31.0896 31.419H1.91244C1.57561 31.4194 1.24463 31.3395 0.953088 31.1872C0.661549 31.035 0.419826 30.8158 0.252446 30.5521C0.085065 30.2883 -0.00201709 29.9892 3.54625e-05 29.6853C0.00208802 29.3813 0.093202 29.0832 0.264133 28.8213C1.77908 26.5157 2.91442 23.2266 3.1262 22.5906C3.13502 22.5645 3.1394 22.5373 3.13919 22.5099V17.0361C3.13919 17.0302 3.13919 17.0239 3.13919 17.018C3.21611 14.2297 3.96634 11.8344 5.3679 9.90432C6.49825 8.34609 8.04566 7.0921 9.96669 6.17663C13.2014 4.63463 16.3601 4.59226 16.493 4.59135H16.507C16.6399 4.59135 19.7986 4.63643 23.0333 6.17663C24.9543 7.0921 26.5018 8.34609 27.6321 9.90432C29.0337 11.8362 29.7839 14.2315 29.8608 17.018C29.8608 17.0239 29.8608 17.0302 29.8608 17.0361V22.5099C29.8605 22.5373 29.8649 22.5645 29.8738 22.5906C30.0856 23.2266 31.2224 26.5162 32.7359 28.8213C32.9068 29.0832 32.9979 29.3813 33 29.6853C33.002 29.9892 32.9149 30.2883 32.7476 30.5521C32.5802 30.8158 32.3385 31.035 32.0469 31.1872C31.7554 31.3395 31.4244 31.4194 31.0876 31.419H31.0896ZM4.73805 17.0455V22.5099C4.73816 22.6779 4.7109 22.845 4.65713 23.0058C4.43586 23.6697 3.24908 27.1076 1.63922 29.556C1.61136 29.5975 1.59662 29.645 1.59662 29.6935C1.59662 29.742 1.61136 29.7895 1.63922 29.831C1.66628 29.8751 1.70603 29.9119 1.75429 29.9373C1.80256 29.9628 1.85754 29.9761 1.91344 29.9757H31.0896C31.1455 29.9761 31.2004 29.9628 31.2487 29.9373C31.297 29.9119 31.3367 29.8751 31.3638 29.831C31.3916 29.7895 31.4064 29.742 31.4064 29.6935C31.4064 29.645 31.3916 29.5975 31.3638 29.556C29.7949 27.1671 28.657 23.9384 28.3454 23.0053C28.292 22.8444 28.2649 22.6774 28.2649 22.5095V17.0455C28.1356 12.5096 26.1251 9.28049 22.2881 7.4518C19.466 6.10902 16.6673 6.03645 16.501 6.03375C16.3452 6.0369 13.4911 6.11308 10.6625 7.47614C6.86087 9.30933 4.86592 12.5295 4.73805 17.0455Z" fill="black"/>
<path d="M12.6697 6.66104C12.4577 6.66104 12.2545 6.58506 12.1046 6.44981C11.9547 6.31456 11.8705 6.13112 11.8705 5.93984V4.74536C11.8705 3.63657 12.3586 2.5732 13.2274 1.78917C14.0962 1.00514 15.2746 0.564674 16.5033 0.564674C17.7319 0.564674 18.9103 1.00514 19.7791 1.78917C20.6479 2.5732 21.136 3.63657 21.136 4.74536V5.91731C21.136 6.10858 21.0518 6.29202 20.9019 6.42727C20.7521 6.56252 20.5488 6.6385 20.3368 6.6385C20.1249 6.6385 19.9216 6.56252 19.7717 6.42727C19.6219 6.29202 19.5377 6.10858 19.5377 5.91731V4.74536C19.5377 4.01912 19.218 3.32263 18.6489 2.8091C18.0798 2.29557 17.308 2.00707 16.5033 2.00707C15.6985 2.00707 14.9267 2.29557 14.3576 2.8091C13.7886 3.32263 13.4689 4.01912 13.4689 4.74536V5.93984C13.4689 6.13112 13.3847 6.31456 13.2348 6.44981C13.0849 6.58506 12.8816 6.66104 12.6697 6.66104ZM16.5033 38.0669C12.8595 38.0669 9.89453 35.3917 9.89453 32.1031V30.6976C9.89453 30.5064 9.97873 30.3229 10.1286 30.1877C10.2785 30.0524 10.4818 29.9764 10.6937 29.9764H22.3128C22.5248 29.9764 22.728 30.0524 22.8779 30.1877C23.0278 30.3229 23.112 30.5064 23.112 30.6976V32.1031C23.112 35.3917 20.1495 38.0669 16.5033 38.0669ZM11.4929 31.4188V32.1031C11.4929 33.3022 12.0208 34.4523 12.9604 35.3002C13.9 36.1481 15.1744 36.6245 16.5033 36.6245C17.8321 36.6245 19.1065 36.1481 20.0461 35.3002C20.9858 34.4523 21.5136 33.3022 21.5136 32.1031V31.4188H11.4929Z" fill="black"/>
</svg>
