<svg width="40" height="40" viewBox="0 0 40 40" fill="none" xmlns="http://www.w3.org/2000/svg">
<rect width="40" height="40" fill="white"/>
<path d="M12.2504 29.269C12.6718 29.269 13.1251 29.3564 13.5424 29.498C13.5159 29.5626 13.4897 29.6277 13.464 29.6931C13.3871 29.8885 13.3124 30.0911 13.2425 30.3024L12.2083 30.3373L10.013 30.3373C10.0391 30.3072 10.0656 30.2776 10.0926 30.2485C10.6982 29.5971 11.4787 29.269 12.2504 29.269Z" fill="black" stroke="black" stroke-width="5"/>
<rect x="0.75" y="5.19504" width="38.5" height="34.055" rx="8.25" fill="#D1D1D1" stroke="#D1D1D1" stroke-width="1.5"/>
<rect x="6.83891" y="32.3075" width="28.0342" height="0.341875" rx="0.170938" fill="#D1D1D1" stroke="black" stroke-width="0.341875"/>
<mask id="path-4-inside-1_681_583" fill="white">
<path d="M27.3518 32.7332C27.3518 30.9878 26.6764 29.3138 25.4742 28.0796C24.2721 26.8454 22.6416 26.1521 20.9415 26.1521C19.2414 26.1521 17.6109 26.8454 16.4088 28.0796C15.2066 29.3138 14.5313 30.9878 14.5313 32.7332L20.9415 32.7332H27.3518Z"/>
</mask>
<path d="M27.3518 32.7332C27.3518 30.9878 26.6764 29.3138 25.4742 28.0796C24.2721 26.8454 22.6416 26.1521 20.9415 26.1521C19.2414 26.1521 17.6109 26.8454 16.4088 28.0796C15.2066 29.3138 14.5313 30.9878 14.5313 32.7332L20.9415 32.7332H27.3518Z" fill="black" stroke="black" stroke-width="2" mask="url(#path-4-inside-1_681_583)"/>
<path d="M23.6031 21.7083C23.6031 23.1315 22.4493 24.2852 21.0261 24.2852C19.6029 24.2852 18.4492 23.1315 18.4492 21.7083C18.4492 20.2852 19.6029 19.1315 21.0261 19.1315C22.4493 19.1315 23.6031 20.2852 23.6031 21.7083Z" fill="black" stroke="black"/>
<path d="M30.6124 23.9315C30.6124 24.8826 29.8414 25.6537 28.8902 25.6537C27.939 25.6537 27.168 24.8826 27.168 23.9315C27.168 22.9804 27.939 22.2093 28.8902 22.2093C29.8414 22.2093 30.6124 22.9804 30.6124 23.9315Z" fill="black" stroke="black"/>
<path d="M13.2765 23.5555C13.2765 24.5066 12.5054 25.2777 11.5543 25.2777C10.6031 25.2777 9.83203 24.5066 9.83203 23.5555C9.83203 22.6044 10.6031 21.8333 11.5543 21.8333C12.5054 21.8333 13.2765 22.6044 13.2765 23.5555Z" fill="black" stroke="black"/>
<rect x="29.8086" y="0.75" width="2.60256" height="7.2178" rx="1.30128" fill="#D1D1D1" stroke="#D1D1D1" stroke-width="1.5"/>
<rect x="8.27344" y="0.75" width="2.60256" height="7.2178" rx="1.30128" fill="#D1D1D1" stroke="#D1D1D1" stroke-width="1.5"/>
<path d="M1.17578 11.7646L38.8229 11.7706" stroke="#D1D1D1" stroke-width="1.5"/>
<path d="M7.18872 32.2349C7.2972 30.9315 7.82697 29.709 8.6864 28.7844C9.65382 27.7438 10.9578 27.1667 12.309 27.1667C13.5965 27.1667 15.1639 27.6843 16.1374 28.5664C16.0307 28.8255 15.9219 29.0726 15.8138 29.3168C15.804 29.3389 15.7942 29.361 15.7845 29.383C15.646 29.6955 15.5078 30.0076 15.3837 30.323C15.1629 30.8843 14.9817 31.468 14.8983 32.1473L12.3006 32.2349L7.18872 32.2349Z" fill="black" stroke="black"/>
<path d="M34.6941 32.4051C34.5856 31.1017 34.0559 29.8791 33.1965 28.9546C32.2292 27.9139 30.9253 27.3368 29.5742 27.3368C28.2868 27.3368 26.7195 27.8545 25.7461 28.7365C25.8528 28.9956 25.9616 29.2427 26.0697 29.4869C26.0794 29.509 26.0892 29.5311 26.099 29.5532C26.2374 29.8657 26.3756 30.1778 26.4997 30.4932C26.7205 31.0544 26.9017 31.6382 26.9851 32.3175L29.5826 32.4051L34.6941 32.4051Z" fill="black" stroke="black"/>
</svg>
