<svg width="41" height="42" viewBox="0 0 41 42" fill="none" xmlns="http://www.w3.org/2000/svg">
<path d="M12.4093 30.6078C12.8607 30.6078 13.3544 30.7128 13.8032 30.8827C13.7539 31.0041 13.7051 31.1277 13.6578 31.2521C13.5738 31.4734 13.4927 31.7029 13.4177 31.9428L12.3656 31.9796L9.9624 31.9796C10.046 31.8611 10.1354 31.7488 10.2301 31.6432C10.8592 30.9417 11.6503 30.6078 12.4093 30.6078Z" stroke="black" stroke-width="5"/>
<path d="M7.21425 33.9796C7.31966 32.5908 7.86135 31.289 8.74115 30.3079C9.72424 29.2116 11.0452 28.6078 12.4093 28.6078C13.7163 28.6078 15.3135 29.1554 16.3009 30.0928C16.1893 30.3745 16.0756 30.6424 15.9628 30.9066C15.9529 30.9298 15.943 30.953 15.9331 30.9761C15.7928 31.3044 15.6531 31.6314 15.5277 31.9618C15.3026 32.5548 15.1189 33.1702 15.036 33.8874L12.4006 33.9796L7.21425 33.9796Z" fill="white" stroke="black"/>
<path d="M35.1529 34.0505C35.0475 32.6617 34.5059 31.3599 33.6261 30.3788C32.6431 29.2826 31.3223 28.6788 29.9582 28.6788C28.6513 28.6788 27.0543 29.2263 26.067 30.1638C26.1785 30.4455 26.2922 30.7133 26.4051 30.9776C26.415 31.0008 26.4249 31.0239 26.4348 31.0471C26.575 31.3754 26.7147 31.7023 26.8401 32.0328C27.0652 32.6257 27.2489 33.2412 27.3318 33.9584L29.967 34.0505L35.1529 34.0505Z" fill="white" stroke="black"/>
<rect x="0.75" y="5.4169" width="39.0176" height="35.8331" rx="8.25" stroke="black" stroke-width="1.5"/>
<rect x="6.75391" y="33.7436" width="28.7432" height="0.717944" rx="0.358972" fill="black"/>
<mask id="path-6-inside-1_351_12426" fill="white">
<path d="M27.7052 34.3707C27.7052 32.538 27.0211 30.7803 25.8033 29.4844C24.5856 28.1885 22.9341 27.4604 21.212 27.4604C19.4898 27.4604 17.8383 28.1885 16.6206 29.4844C15.4029 30.7803 14.7188 32.538 14.7188 34.3707L21.212 34.3707H27.7052Z"/>
</mask>
<path d="M27.7052 34.3707C27.7052 32.538 27.0211 30.7803 25.8033 29.4844C24.5856 28.1885 22.9341 27.4604 21.212 27.4604C19.4898 27.4604 17.8383 28.1885 16.6206 29.4844C15.4029 30.7803 14.7188 32.538 14.7188 34.3707L21.212 34.3707H27.7052Z" fill="white" stroke="black" stroke-width="2" mask="url(#path-6-inside-1_351_12426)"/>
<path d="M23.9132 22.794C23.9132 24.3193 22.7248 25.5248 21.2964 25.5248C19.868 25.5248 18.6797 24.3193 18.6797 22.794C18.6797 21.2688 19.868 20.0633 21.2964 20.0633C22.7248 20.0633 23.9132 21.2688 23.9132 22.794Z" fill="white" stroke="black"/>
<path d="M31.0137 25.1291C31.0137 26.1587 30.213 26.9624 29.2627 26.9624C28.3124 26.9624 27.5117 26.1587 27.5117 25.1291C27.5117 24.0995 28.3124 23.2958 29.2627 23.2958C30.213 23.2958 31.0137 24.0995 31.0137 25.1291Z" fill="white" stroke="black"/>
<path d="M13.6973 25.1291C13.6973 26.1587 12.8965 26.9624 11.9463 26.9624C10.996 26.9624 10.1953 26.1587 10.1953 25.1291C10.1953 24.0995 10.996 23.2958 11.9463 23.2958C12.8965 23.2958 13.6973 24.0995 13.6973 25.1291Z" fill="white" stroke="black"/>
<rect x="30.1875" y="0.75" width="2.65565" height="7.65379" rx="1.32782" fill="white" stroke="black" stroke-width="1.5"/>
<rect x="8.36719" y="0.75" width="2.65565" height="7.65379" rx="1.32782" fill="white" stroke="black" stroke-width="1.5"/>
<path d="M0.519531 12.564H40.1713" stroke="black" stroke-width="1.5"/>
</svg>
