<svg width="45" height="38" viewBox="0 0 45 38" fill="none" xmlns="http://www.w3.org/2000/svg">
<rect width="34.7106" height="0.530216" transform="matrix(0.999085 0.0427738 -0.0653382 0.997863 5.23047 5.66656)" fill="black"/>
<rect width="34.7106" height="0.530216" transform="matrix(0.999085 0.0427738 -0.0653382 0.997863 5.23047 9.16661)" fill="black"/>
<rect width="34.7106" height="0.530216" transform="matrix(0.999085 0.0427738 -0.0653382 0.997863 5.23047 12.6667)" fill="black"/>
<path d="M41.7893 18.9656L31.532 23.5999M41.7893 18.9656H23.1687M41.7893 18.9656L43.6937 5.55408C43.8585 4.39387 42.995 3.34123 41.8249 3.276L3.57265 1.14343C2.26883 1.07074 1.24622 2.24672 1.49922 3.52782L4.22959 17.3531C4.41466 18.2902 5.23652 18.9656 6.1917 18.9656H23.1687M21.2747 28.2341L36.068 36L31.532 23.5999M21.2747 28.2341L31.532 23.5999M21.2747 28.2341L23.1687 18.9656" stroke="black"/>
<rect x="30.3672" y="12.6667" width="4.19512" height="2.33333" fill="#FCFEFF"/>
</svg>
