<svg width="50" height="35" viewBox="0 0 50 35" fill="none" xmlns="http://www.w3.org/2000/svg">
<path d="M3.3493 14.8459L0.578898 2.56599C0.287873 1.27601 1.30653 0.0637625 2.62735 0.128223L44.6511 2.17911C47.0345 2.29543 48.7866 4.45936 48.4045 6.81485L46.5956 17.9656L34.8782 22.5999L40.0599 35L23.1608 27.2341L25.3244 17.9656H7.25123C5.38126 17.9656 3.76083 16.6701 3.3493 14.8459Z" fill="#D1D1D1"/>
<rect width="39.6432" height="0.530561" transform="matrix(0.999299 0.0374517 -0.0745906 0.997214 4.83203 4.66638)" fill="black"/>
<rect width="39.6432" height="0.530561" transform="matrix(0.999299 0.0374517 -0.0745906 0.997214 4.83203 8.16638)" fill="black"/>
<rect width="39.6432" height="0.530561" transform="matrix(0.999299 0.0374517 -0.0745906 0.997214 4.83203 11.6664)" fill="black"/>
</svg>
