<svg width="38" height="33" viewBox="0 0 38 33" fill="none" xmlns="http://www.w3.org/2000/svg">
<mask id="path-1-inside-1_537_522" fill="white">
<path fill-rule="evenodd" clip-rule="evenodd" d="M6.43745 28.6525C6.20832 27.8841 5.23738 27.2277 4.00122 27.0818C2.50209 26.905 1.1806 27.5461 1.04957 28.5138C0.962291 29.1584 1.42533 29.7854 2.18739 30.1844C2.14619 30.2937 2.11677 30.4084 2.10063 30.5276C1.97314 31.4693 2.72181 32.3331 3.77284 32.4571C4.39703 32.5307 4.98748 32.3269 5.39082 31.9519C5.48162 31.9752 5.5754 31.9927 5.67172 32.0041C6.72274 32.1281 7.67812 31.4653 7.80562 30.5237C7.92043 29.6757 7.32468 28.8908 6.43745 28.6525Z"/>
</mask>
<path d="M6.43745 28.6525L5.47915 28.9383L5.63874 29.4734L6.17807 29.6183L6.43745 28.6525ZM4.00122 27.0818L3.88406 28.0749L4.00122 27.0818ZM1.04957 28.5138L0.0586159 28.3796L0.0586159 28.3796L1.04957 28.5138ZM2.18739 30.1844L3.12307 30.5373L3.43537 29.7091L2.65127 29.2985L2.18739 30.1844ZM2.10063 30.5276L1.10967 30.3935L1.10967 30.3935L2.10063 30.5276ZM3.77284 32.4571L3.89 31.464L3.89 31.464L3.77284 32.4571ZM5.39082 31.9519L5.63918 30.9832L5.11003 30.8476L4.70994 31.2195L5.39082 31.9519ZM5.67172 32.0041L5.55456 32.9972L5.55456 32.9972L5.67172 32.0041ZM7.80562 30.5237L6.81466 30.3895L6.81466 30.3895L7.80562 30.5237ZM7.39575 28.3667C7.19416 27.6907 6.70228 27.1615 6.14411 26.7967C5.57637 26.4256 4.87436 26.1779 4.11838 26.0887L3.88406 28.0749C4.36423 28.1316 4.76578 28.2851 5.04983 28.4707C5.34345 28.6627 5.45161 28.8459 5.47915 28.9383L7.39575 28.3667ZM4.11838 26.0887C3.20576 25.981 2.30448 26.1154 1.57587 26.4689C0.8598 26.8163 0.184363 27.4509 0.0586159 28.3796L2.04053 28.6479C2.04581 28.609 2.09663 28.4392 2.44884 28.2683C2.78852 28.1035 3.29755 28.0057 3.88406 28.0749L4.11838 26.0887ZM0.0586159 28.3796C-0.111114 29.6332 0.795723 30.5845 1.7235 31.0703L2.65127 29.2985C2.38052 29.1567 2.20998 28.998 2.12046 28.8695C2.03567 28.7478 2.03654 28.6774 2.04053 28.6479L0.0586159 28.3796ZM1.25171 29.8316C1.18429 30.0103 1.13608 30.1984 1.10967 30.3935L3.09159 30.6618C3.09746 30.6184 3.10809 30.577 3.12307 30.5373L1.25171 29.8316ZM1.10967 30.3935C0.893602 31.9893 2.15555 33.2732 3.65568 33.4502L3.89 31.464C3.28807 31.393 3.05267 30.9492 3.09159 30.6618L1.10967 30.3935ZM3.65568 33.4502C4.56378 33.5573 5.44803 33.2641 6.0717 32.6843L4.70994 31.2195C4.52693 31.3896 4.23027 31.5041 3.89 31.464L3.65568 33.4502ZM5.78888 31.011C5.73674 31.0048 5.6868 30.9954 5.63918 30.9832L5.14246 32.9206C5.27644 32.9549 5.41405 32.9806 5.55456 32.9972L5.78888 31.011ZM6.81466 30.3895C6.77327 30.6952 6.3988 31.083 5.78888 31.011L5.55456 32.9972C7.04669 33.1733 8.58298 32.2354 8.79657 30.6578L6.81466 30.3895ZM6.17807 29.6183C6.66724 29.7496 6.85046 30.125 6.81466 30.3895L8.79657 30.6578C8.9904 29.2263 7.98213 28.0319 6.69683 27.6867L6.17807 29.6183Z" fill="black" mask="url(#path-1-inside-1_537_522)"/>
<mask id="path-3-inside-2_537_522" fill="white">
<path fill-rule="evenodd" clip-rule="evenodd" d="M14.1684 29.5251C11.2843 29.1789 9.07059 27.3486 8.69613 25.1969C8.08754 25.3531 7.43683 25.4377 6.76064 25.4377C3.36288 25.4377 0.608454 23.3023 0.608454 20.6681C0.608454 19.6545 1.01632 18.7147 1.71175 17.942C0.659799 16.9756 0 15.5853 0 14.0403C0 11.121 2.35538 8.75452 5.26088 8.75452C5.57275 8.75452 5.87827 8.78179 6.17523 8.83407C6.27833 3.93987 10.8709 0 16.5213 0C21.2602 0 25.2551 2.77132 26.4814 6.55268C27.3724 6.29366 28.3294 6.15294 29.3256 6.15294C34.1161 6.15294 37.9996 9.40689 37.9996 13.4209C37.9996 16.1574 36.1946 18.5407 33.5278 19.7804C33.9162 20.632 34.1306 21.5666 34.1306 22.547C34.1306 26.5154 30.617 29.7324 26.2828 29.7324C23.8785 29.7324 21.7268 28.7425 20.2872 27.1836C19.166 28.8485 16.7736 29.8378 14.1684 29.5251Z"/>
</mask>
<path d="M8.69613 25.1969L9.68133 25.0254L9.49577 23.9592L8.44746 24.2283L8.69613 25.1969ZM14.1684 29.5251L14.0493 30.518L14.0493 30.518L14.1684 29.5251ZM1.71175 17.942L2.45503 18.611L3.11719 17.8753L2.38831 17.2057L1.71175 17.942ZM6.17523 8.83407L6.00182 9.81892L7.15044 10.0212L7.17501 8.85513L6.17523 8.83407ZM26.4814 6.55268L25.5302 6.86117L25.8294 7.78363L26.7606 7.51293L26.4814 6.55268ZM33.5278 19.7804L33.1062 18.8736L32.206 19.2922L32.618 20.1954L33.5278 19.7804ZM20.2872 27.1836L21.0219 26.5051L20.164 25.5762L19.4578 26.625L20.2872 27.1836ZM7.71094 25.3683C8.18351 28.0838 10.872 30.1366 14.0493 30.518L14.2876 28.5323C11.6965 28.2212 9.95767 26.6134 9.68133 25.0254L7.71094 25.3683ZM6.76064 26.4377C7.52005 26.4377 8.25433 26.3428 8.94481 26.1655L8.44746 24.2283C7.92075 24.3635 7.35361 24.4377 6.76064 24.4377V26.4377ZM-0.391546 20.6681C-0.391546 24.0765 3.06234 26.4377 6.76064 26.4377V24.4377C3.66342 24.4377 1.60845 22.5281 1.60845 20.6681H-0.391546ZM0.968467 17.2731C0.131998 18.2024 -0.391546 19.3735 -0.391546 20.6681H1.60845C1.60845 19.9355 1.90063 19.227 2.45503 18.611L0.968467 17.2731ZM-1 14.0403C-1 15.876 -0.214831 17.53 1.03519 18.6784L2.38831 17.2057C1.53443 16.4212 1 15.2947 1 14.0403H-1ZM5.26088 7.75452C1.79865 7.75452 -1 10.5732 -1 14.0403H1C1 11.6689 2.9121 9.75452 5.26088 9.75452V7.75452ZM6.34864 7.84922C5.99469 7.7869 5.63114 7.75452 5.26088 7.75452V9.75452C5.51435 9.75452 5.76186 9.77667 6.00182 9.81892L6.34864 7.84922ZM16.5213 -1C10.4569 -1 5.29257 3.25348 5.17545 8.81301L7.17501 8.85513C7.26409 4.62625 11.285 1 16.5213 1V-1ZM27.4327 6.24419C26.0531 1.9902 21.6267 -1 16.5213 -1V1C20.8938 1 24.4572 3.55244 25.5302 6.86117L27.4327 6.24419ZM29.3256 5.15294C28.2353 5.15294 27.1843 5.30696 26.2023 5.59243L26.7606 7.51293C27.5606 7.28036 28.4236 7.15294 29.3256 7.15294V5.15294ZM38.9996 13.4209C38.9996 8.69624 34.4955 5.15294 29.3256 5.15294V7.15294C33.7368 7.15294 36.9996 10.1176 36.9996 13.4209H38.9996ZM33.9494 20.6872C36.887 19.3216 38.9996 16.6294 38.9996 13.4209H36.9996C36.9996 15.6854 35.5022 17.7597 33.1062 18.8736L33.9494 20.6872ZM35.1306 22.547C35.1306 21.4188 34.8835 20.3431 34.4376 19.3655L32.618 20.1954C32.9488 20.9209 33.1306 21.7144 33.1306 22.547H35.1306ZM26.2828 30.7324C31.0845 30.7324 35.1306 27.1489 35.1306 22.547H33.1306C33.1306 25.8819 30.1496 28.7324 26.2828 28.7324V30.7324ZM19.5526 27.862C21.1842 29.6289 23.6037 30.7324 26.2828 30.7324V28.7324C24.1534 28.7324 22.2694 27.856 21.0219 26.5051L19.5526 27.862ZM14.0493 30.518C16.9357 30.8645 19.739 29.788 21.1167 27.7421L19.4578 26.625C18.5931 27.909 16.6115 28.8112 14.2876 28.5323L14.0493 30.518Z" fill="black" mask="url(#path-3-inside-2_537_522)"/>
<path d="M11.0202 16.3707C11.0202 17.6191 10.0541 18.6123 8.88509 18.6123C7.71609 18.6123 6.75 17.6191 6.75 16.3707C6.75 15.1223 7.71609 14.1292 8.88509 14.1292C10.0541 14.1292 11.0202 15.1223 11.0202 16.3707Z" fill="#D9D9D9" stroke="black" stroke-width="0.5"/>
<path d="M29.2702 16.3707C29.2702 17.6191 28.3041 18.6123 27.1351 18.6123C25.9661 18.6123 25 17.6191 25 16.3707C25 15.1223 25.9661 14.1292 27.1351 14.1292C28.3041 14.1292 29.2702 15.1223 29.2702 16.3707Z" fill="#D9D9D9" stroke="black" stroke-width="0.5"/>
<path d="M20.1452 16.3707C20.1452 17.6191 19.1791 18.6123 18.0101 18.6123C16.8411 18.6123 15.875 17.6191 15.875 16.3707C15.875 15.1223 16.8411 14.1292 18.0101 14.1292C19.1791 14.1292 20.1452 15.1223 20.1452 16.3707Z" fill="#D9D9D9" stroke="black" stroke-width="0.5"/>
</svg>
